G04 #@! TF.GenerationSoftware,KiCad,Pcbnew,9.0.2*
G04 #@! TF.CreationDate,2025-05-27T17:03:47+02:00*
G04 #@! TF.ProjectId,v0.4.3d,76302e34-2e33-4642-9e6b-696361645f70,4d*
G04 #@! TF.SameCoordinates,Original*
G04 #@! TF.FileFunction,Copper,L1,Top*
G04 #@! TF.FilePolarity,Positive*
%FSLAX46Y46*%
G04 Gerber Fmt 4.6, Leading zero omitted, Abs format (unit mm)*
G04 Created by KiCad (PCBNEW 9.0.2) date 2025-05-27 17:03:47*
%MOMM*%
%LPD*%
G01*
G04 APERTURE LIST*
G04 Aperture macros list*
%AMRoundRect*
0 Rectangle with rounded corners*
0 $1 Rounding radius*
0 $2 $3 $4 $5 $6 $7 $8 $9 X,Y pos of 4 corners*
0 Add a 4 corners polygon primitive as box body*
4,1,4,$2,$3,$4,$5,$6,$7,$8,$9,$2,$3,0*
0 Add four circle primitives for the rounded corners*
1,1,$1+$1,$2,$3*
1,1,$1+$1,$4,$5*
1,1,$1+$1,$6,$7*
1,1,$1+$1,$8,$9*
0 Add four rect primitives between the rounded corners*
20,1,$1+$1,$2,$3,$4,$5,0*
20,1,$1+$1,$4,$5,$6,$7,0*
20,1,$1+$1,$6,$7,$8,$9,0*
20,1,$1+$1,$8,$9,$2,$3,0*%
%AMFreePoly0*
4,1,23,0.550000,-0.750000,0.000000,-0.750000,0.000000,-0.745722,-0.065263,-0.745722,-0.191342,-0.711940,-0.304381,-0.646677,-0.396677,-0.554381,-0.461940,-0.441342,-0.495722,-0.315263,-0.495722,-0.250000,-0.500000,-0.250000,-0.500000,0.250000,-0.495722,0.250000,-0.495722,0.315263,-0.461940,0.441342,-0.396677,0.554381,-0.304381,0.646677,-0.191342,0.711940,-0.065263,0.745722,0.000000,0.745722,
0.000000,0.750000,0.550000,0.750000,0.550000,-0.750000,0.550000,-0.750000,$1*%
%AMFreePoly1*
4,1,23,0.000000,0.745722,0.065263,0.745722,0.191342,0.711940,0.304381,0.646677,0.396677,0.554381,0.461940,0.441342,0.495722,0.315263,0.495722,0.250000,0.500000,0.250000,0.500000,-0.250000,0.495722,-0.250000,0.495722,-0.315263,0.461940,-0.441342,0.396677,-0.554381,0.304381,-0.646677,0.191342,-0.711940,0.065263,-0.745722,0.000000,-0.745722,0.000000,-0.750000,-0.550000,-0.750000,
-0.550000,0.750000,0.000000,0.750000,0.000000,0.745722,0.000000,0.745722,$1*%
%AMFreePoly2*
4,1,9,3.630000,-4.300000,1.870000,-4.300000,1.870000,-3.400000,-1.870000,-3.400000,-1.870000,3.400000,1.870000,3.400000,1.870000,4.300000,3.630000,4.300000,3.630000,-4.300000,3.630000,-4.300000,$1*%
G04 Aperture macros list end*
G04 #@! TA.AperFunction,EtchedComponent*
%ADD10C,0.000000*%
G04 #@! TD*
G04 #@! TA.AperFunction,ComponentPad*
%ADD11O,1.727200X1.727200*%
G04 #@! TD*
G04 #@! TA.AperFunction,ComponentPad*
%ADD12R,1.700000X1.700000*%
G04 #@! TD*
G04 #@! TA.AperFunction,ComponentPad*
%ADD13O,1.700000X1.700000*%
G04 #@! TD*
G04 #@! TA.AperFunction,ComponentPad*
%ADD14R,1.600000X1.600000*%
G04 #@! TD*
G04 #@! TA.AperFunction,ComponentPad*
%ADD15O,1.600000X1.600000*%
G04 #@! TD*
G04 #@! TA.AperFunction,ComponentPad*
%ADD16R,2.600000X2.600000*%
G04 #@! TD*
G04 #@! TA.AperFunction,ComponentPad*
%ADD17C,2.600000*%
G04 #@! TD*
G04 #@! TA.AperFunction,ComponentPad*
%ADD18C,1.727200*%
G04 #@! TD*
G04 #@! TA.AperFunction,ComponentPad*
%ADD19R,1.727200X1.727200*%
G04 #@! TD*
G04 #@! TA.AperFunction,SMDPad,CuDef*
%ADD20FreePoly0,180.000000*%
G04 #@! TD*
G04 #@! TA.AperFunction,SMDPad,CuDef*
%ADD21R,1.000000X1.500000*%
G04 #@! TD*
G04 #@! TA.AperFunction,SMDPad,CuDef*
%ADD22FreePoly1,180.000000*%
G04 #@! TD*
G04 #@! TA.AperFunction,ComponentPad*
%ADD23C,1.600000*%
G04 #@! TD*
G04 #@! TA.AperFunction,ComponentPad*
%ADD24R,2.200000X2.200000*%
G04 #@! TD*
G04 #@! TA.AperFunction,ComponentPad*
%ADD25O,2.200000X2.200000*%
G04 #@! TD*
G04 #@! TA.AperFunction,ComponentPad*
%ADD26R,2.400000X2.400000*%
G04 #@! TD*
G04 #@! TA.AperFunction,ComponentPad*
%ADD27O,2.400000X2.400000*%
G04 #@! TD*
G04 #@! TA.AperFunction,ComponentPad*
%ADD28C,1.560000*%
G04 #@! TD*
G04 #@! TA.AperFunction,ComponentPad*
%ADD29C,1.400000*%
G04 #@! TD*
G04 #@! TA.AperFunction,ComponentPad*
%ADD30O,1.400000X1.400000*%
G04 #@! TD*
G04 #@! TA.AperFunction,ComponentPad*
%ADD31R,1.800000X1.800000*%
G04 #@! TD*
G04 #@! TA.AperFunction,ComponentPad*
%ADD32C,1.800000*%
G04 #@! TD*
G04 #@! TA.AperFunction,ComponentPad*
%ADD33R,2.000000X1.905000*%
G04 #@! TD*
G04 #@! TA.AperFunction,ComponentPad*
%ADD34O,2.000000X1.905000*%
G04 #@! TD*
G04 #@! TA.AperFunction,ComponentPad*
%ADD35C,2.000000*%
G04 #@! TD*
G04 #@! TA.AperFunction,ComponentPad*
%ADD36RoundRect,0.350000X-1.400000X1.400000X-1.400000X-1.400000X1.400000X-1.400000X1.400000X1.400000X0*%
G04 #@! TD*
G04 #@! TA.AperFunction,SMDPad,CuDef*
%ADD37RoundRect,0.300000X0.300000X-0.400000X0.300000X0.400000X-0.300000X0.400000X-0.300000X-0.400000X0*%
G04 #@! TD*
G04 #@! TA.AperFunction,SMDPad,CuDef*
%ADD38RoundRect,0.287500X0.737500X-0.287500X0.737500X0.287500X-0.737500X0.287500X-0.737500X-0.287500X0*%
G04 #@! TD*
G04 #@! TA.AperFunction,SMDPad,CuDef*
%ADD39FreePoly2,90.000000*%
G04 #@! TD*
G04 #@! TA.AperFunction,SMDPad,CuDef*
%ADD40RoundRect,0.300000X0.300000X-0.325000X0.300000X0.325000X-0.300000X0.325000X-0.300000X-0.325000X0*%
G04 #@! TD*
G04 #@! TA.AperFunction,SMDPad,CuDef*
%ADD41RoundRect,0.175000X0.175000X-0.450000X0.175000X0.450000X-0.175000X0.450000X-0.175000X-0.450000X0*%
G04 #@! TD*
G04 #@! TA.AperFunction,SMDPad,CuDef*
%ADD42RoundRect,0.175000X0.875000X-0.175000X0.875000X0.175000X-0.875000X0.175000X-0.875000X-0.175000X0*%
G04 #@! TD*
G04 #@! TA.AperFunction,SMDPad,CuDef*
%ADD43RoundRect,0.300000X-0.300000X0.400000X-0.300000X-0.400000X0.300000X-0.400000X0.300000X0.400000X0*%
G04 #@! TD*
G04 #@! TA.AperFunction,SMDPad,CuDef*
%ADD44RoundRect,0.287500X-0.737500X0.287500X-0.737500X-0.287500X0.737500X-0.287500X0.737500X0.287500X0*%
G04 #@! TD*
G04 #@! TA.AperFunction,SMDPad,CuDef*
%ADD45FreePoly2,270.000000*%
G04 #@! TD*
G04 #@! TA.AperFunction,SMDPad,CuDef*
%ADD46RoundRect,0.300000X-0.300000X0.325000X-0.300000X-0.325000X0.300000X-0.325000X0.300000X0.325000X0*%
G04 #@! TD*
G04 #@! TA.AperFunction,SMDPad,CuDef*
%ADD47RoundRect,0.175000X-0.175000X0.450000X-0.175000X-0.450000X0.175000X-0.450000X0.175000X0.450000X0*%
G04 #@! TD*
G04 #@! TA.AperFunction,SMDPad,CuDef*
%ADD48RoundRect,0.175000X-0.875000X0.175000X-0.875000X-0.175000X0.875000X-0.175000X0.875000X0.175000X0*%
G04 #@! TD*
G04 #@! TA.AperFunction,ViaPad*
%ADD49C,1.600000*%
G04 #@! TD*
G04 #@! TA.AperFunction,ViaPad*
%ADD50C,0.800000*%
G04 #@! TD*
G04 #@! TA.AperFunction,Conductor*
%ADD51C,1.000000*%
G04 #@! TD*
G04 #@! TA.AperFunction,Conductor*
%ADD52C,0.250000*%
G04 #@! TD*
G04 #@! TA.AperFunction,Conductor*
%ADD53C,0.750000*%
G04 #@! TD*
G04 #@! TA.AperFunction,Conductor*
%ADD54C,0.500000*%
G04 #@! TD*
G04 #@! TA.AperFunction,Conductor*
%ADD55C,0.700000*%
G04 #@! TD*
G04 #@! TA.AperFunction,Conductor*
%ADD56C,0.400000*%
G04 #@! TD*
G04 #@! TA.AperFunction,Conductor*
%ADD57C,0.350000*%
G04 #@! TD*
G04 APERTURE END LIST*
D10*
G04 #@! TA.AperFunction,EtchedComponent*
G36*
X125614000Y-117140000D02*
G01*
X125114000Y-117140000D01*
X125114000Y-116540000D01*
X125614000Y-116540000D01*
X125614000Y-117140000D01*
G37*
G04 #@! TD.AperFunction*
D11*
X160800000Y-57000000D03*
X163340000Y-57000000D03*
X137940000Y-105260000D03*
X145560000Y-105260000D03*
X148100000Y-105260000D03*
X203980000Y-57000000D03*
X206520000Y-57000000D03*
X160800000Y-105260000D03*
X163340000Y-105260000D03*
X165880000Y-105260000D03*
X168420000Y-105260000D03*
X170960000Y-105260000D03*
X173500000Y-105260000D03*
X176040000Y-105260000D03*
X178580000Y-105260000D03*
X183660000Y-105260000D03*
X186200000Y-105260000D03*
X188740000Y-105260000D03*
X191280000Y-105260000D03*
X193820000Y-105260000D03*
X196360000Y-105260000D03*
X198900000Y-105260000D03*
X201440000Y-105260000D03*
X133876000Y-57000000D03*
X173500000Y-57000000D03*
X170960000Y-57000000D03*
X168420000Y-57000000D03*
X165880000Y-57000000D03*
X158260000Y-57000000D03*
X155720000Y-57000000D03*
X151656000Y-57000000D03*
X149116000Y-57000000D03*
X146576000Y-57000000D03*
X144036000Y-57000000D03*
X141496000Y-57000000D03*
X138956000Y-57000000D03*
X178580000Y-57000000D03*
X181120000Y-57000000D03*
X183660000Y-57000000D03*
X186200000Y-57000000D03*
X188740000Y-57000000D03*
X191280000Y-57000000D03*
X193820000Y-57000000D03*
X196360000Y-57000000D03*
X203980000Y-59540000D03*
X206520000Y-59540000D03*
X203980000Y-62080000D03*
X206520000Y-62080000D03*
X203980000Y-64620000D03*
X206520000Y-64620000D03*
X203980000Y-67160000D03*
X206520000Y-67160000D03*
X203980000Y-69700000D03*
X206520000Y-69700000D03*
X203980000Y-72240000D03*
X206520000Y-72240000D03*
X203980000Y-74780000D03*
X206520000Y-74780000D03*
X203980000Y-77320000D03*
X206520000Y-77320000D03*
X203980000Y-79860000D03*
X206520000Y-79860000D03*
X203980000Y-82400000D03*
X206520000Y-82400000D03*
X203980000Y-84940000D03*
X206520000Y-84940000D03*
X203980000Y-87480000D03*
X206520000Y-87480000D03*
X203980000Y-90020000D03*
X206520000Y-90020000D03*
X203980000Y-92560000D03*
X206520000Y-92560000D03*
X203980000Y-95100000D03*
X206520000Y-95100000D03*
X203980000Y-97640000D03*
X206520000Y-97640000D03*
X136416000Y-57000000D03*
X150640000Y-105260000D03*
X153180000Y-105260000D03*
X203980000Y-100180000D03*
X206520000Y-100180000D03*
X140480000Y-105260000D03*
X143020000Y-105260000D03*
X128796000Y-57000000D03*
X131336000Y-57000000D03*
X155720000Y-105260000D03*
D12*
X181300000Y-73500000D03*
D13*
X183840000Y-73500000D03*
X186380000Y-73500000D03*
X188920000Y-73500000D03*
X191460000Y-73500000D03*
X194000000Y-73500000D03*
D14*
X193000000Y-123500000D03*
D15*
X195540000Y-123500000D03*
X198080000Y-123500000D03*
X200620000Y-123500000D03*
X200620000Y-115880000D03*
X198080000Y-115880000D03*
X195540000Y-115880000D03*
X193000000Y-115880000D03*
D16*
X205000000Y-44000000D03*
D17*
X205000000Y-49000000D03*
D12*
X198255000Y-81400000D03*
D13*
X198255000Y-78860000D03*
X198255000Y-76320000D03*
X198255000Y-73780000D03*
X198255000Y-71240000D03*
D12*
X174582000Y-99378000D03*
D13*
X174582000Y-96838000D03*
X174582000Y-94298000D03*
D18*
X130500000Y-79740000D03*
D11*
X133040000Y-79740000D03*
X130500000Y-82280000D03*
X133040000Y-82280000D03*
D18*
X130500000Y-84820000D03*
D19*
X133040000Y-84820000D03*
D18*
X130500000Y-87360000D03*
D19*
X133040000Y-87360000D03*
X130500000Y-89900000D03*
D11*
X133040000Y-89900000D03*
D19*
X130500000Y-92440000D03*
D11*
X133040000Y-92440000D03*
X130500000Y-94980000D03*
X133040000Y-94980000D03*
D19*
X130500000Y-97520000D03*
X133040000Y-97520000D03*
X130500000Y-100060000D03*
D11*
X133040000Y-100060000D03*
D19*
X130500000Y-102600000D03*
D11*
X133040000Y-102600000D03*
X130500000Y-105140000D03*
X133040000Y-105140000D03*
D19*
X130500000Y-107680000D03*
D11*
X133040000Y-107680000D03*
X130500000Y-110220000D03*
X133040000Y-110220000D03*
X130500000Y-112760000D03*
X133040000Y-112760000D03*
X130500000Y-115300000D03*
X133040000Y-115300000D03*
X130500000Y-117840000D03*
X133040000Y-117840000D03*
X130500000Y-120380000D03*
X133040000Y-120380000D03*
X130500000Y-122920000D03*
D19*
X133040000Y-122920000D03*
D11*
X130500000Y-125460000D03*
X133040000Y-125460000D03*
X130500000Y-128000000D03*
X133040000Y-128000000D03*
D12*
X194354000Y-132080000D03*
D13*
X191814000Y-132080000D03*
X189274000Y-132080000D03*
D14*
X129900000Y-64400000D03*
D15*
X132440000Y-64400000D03*
X134980000Y-64400000D03*
X137520000Y-64400000D03*
X140060000Y-64400000D03*
X142600000Y-64400000D03*
D14*
X145140000Y-64400000D03*
D15*
X147680000Y-64400000D03*
X147680000Y-51700000D03*
X145140000Y-51700000D03*
X142600000Y-51700000D03*
X140060000Y-51700000D03*
X137520000Y-51700000D03*
X134980000Y-51700000D03*
X132440000Y-51700000D03*
X129900000Y-51700000D03*
D12*
X183475000Y-61000000D03*
D13*
X186015000Y-61000000D03*
X188555000Y-61000000D03*
D12*
X183500000Y-65000000D03*
D13*
X186040000Y-65000000D03*
X188580000Y-65000000D03*
X191120000Y-65000000D03*
D12*
X183380000Y-69000000D03*
D13*
X185920000Y-69000000D03*
X188460000Y-69000000D03*
X191000000Y-69000000D03*
X193540000Y-69000000D03*
D20*
X126014000Y-116840000D03*
D21*
X124714000Y-116840000D03*
D22*
X123414000Y-116840000D03*
D14*
X154686000Y-45466000D03*
D23*
X154686000Y-50466000D03*
D14*
X124500000Y-79810000D03*
D15*
X124500000Y-72190000D03*
D14*
X124500000Y-89810000D03*
D15*
X124500000Y-82190000D03*
D24*
X198374000Y-43180000D03*
D25*
X198374000Y-50800000D03*
D26*
X195072000Y-43180000D03*
D27*
X182372000Y-43180000D03*
D28*
X205740000Y-118364000D03*
X207640000Y-113264000D03*
X192532000Y-98552000D03*
X194432000Y-93452000D03*
D29*
X154940000Y-59944000D03*
D30*
X154940000Y-65024000D03*
D29*
X195326000Y-85090000D03*
D30*
X190246000Y-85090000D03*
D29*
X190246000Y-80518000D03*
D30*
X195326000Y-80518000D03*
D29*
X157226000Y-65024000D03*
D30*
X157226000Y-59944000D03*
D29*
X190246000Y-87376000D03*
D30*
X195326000Y-87376000D03*
D29*
X190246000Y-82804000D03*
D30*
X195326000Y-82804000D03*
D29*
X142460000Y-45000000D03*
D30*
X147540000Y-45000000D03*
D29*
X152146000Y-98044000D03*
D30*
X157226000Y-98044000D03*
D29*
X170180000Y-66294000D03*
D30*
X175260000Y-66294000D03*
D29*
X175260000Y-64008000D03*
D30*
X170180000Y-64008000D03*
D29*
X150368000Y-59944000D03*
D30*
X150368000Y-65024000D03*
D29*
X152654000Y-65024000D03*
D30*
X152654000Y-59944000D03*
D29*
X142494000Y-47500000D03*
D30*
X147574000Y-47500000D03*
D29*
X173482000Y-120396000D03*
D30*
X173482000Y-115316000D03*
D29*
X188468000Y-111252000D03*
D30*
X183388000Y-111252000D03*
D29*
X175768000Y-115316000D03*
D30*
X175768000Y-120396000D03*
D29*
X171958000Y-131064000D03*
D30*
X177038000Y-131064000D03*
D29*
X171196000Y-115316000D03*
D30*
X171196000Y-120396000D03*
D29*
X157734000Y-131064000D03*
D30*
X162814000Y-131064000D03*
D29*
X153416000Y-124714000D03*
D30*
X158496000Y-124714000D03*
D29*
X164846000Y-131064000D03*
D30*
X169926000Y-131064000D03*
D29*
X155702000Y-131064000D03*
D30*
X150622000Y-131064000D03*
D29*
X158496000Y-122428000D03*
D30*
X153416000Y-122428000D03*
D29*
X188722000Y-129186000D03*
D30*
X188722000Y-124106000D03*
D29*
X139446000Y-107950000D03*
D30*
X144526000Y-107950000D03*
D29*
X151638000Y-107950000D03*
D30*
X146558000Y-107950000D03*
D29*
X190246000Y-77500000D03*
D30*
X195326000Y-77500000D03*
D29*
X170180000Y-59436000D03*
D30*
X175260000Y-59436000D03*
D29*
X185166000Y-96520000D03*
D30*
X185166000Y-101600000D03*
D29*
X124714000Y-126238000D03*
D30*
X124714000Y-121158000D03*
D29*
X189738000Y-96520000D03*
D30*
X189738000Y-101600000D03*
D29*
X187470000Y-101600000D03*
D30*
X187470000Y-96520000D03*
D14*
X168402000Y-123444000D03*
D15*
X168402000Y-120904000D03*
X168402000Y-118364000D03*
X168402000Y-115824000D03*
X160782000Y-115824000D03*
X160782000Y-118364000D03*
X160782000Y-120904000D03*
X160782000Y-123444000D03*
D14*
X187198000Y-86868000D03*
D15*
X187198000Y-84328000D03*
X187198000Y-81788000D03*
X187198000Y-79248000D03*
X179578000Y-79248000D03*
X179578000Y-81788000D03*
X179578000Y-84328000D03*
X179578000Y-86868000D03*
D14*
X186182000Y-123444000D03*
D15*
X186182000Y-120904000D03*
X186182000Y-118364000D03*
X186182000Y-115824000D03*
X178562000Y-115824000D03*
X178562000Y-118364000D03*
X178562000Y-120904000D03*
X178562000Y-123444000D03*
D14*
X168910000Y-69088000D03*
D15*
X168910000Y-71628000D03*
X168910000Y-74168000D03*
X168910000Y-76708000D03*
X168910000Y-79248000D03*
X168910000Y-81788000D03*
X168910000Y-84328000D03*
X168910000Y-86868000D03*
X176530000Y-86868000D03*
X176530000Y-84328000D03*
X176530000Y-81788000D03*
X176530000Y-79248000D03*
X176530000Y-76708000D03*
X176530000Y-74168000D03*
X176530000Y-71628000D03*
X176530000Y-69088000D03*
D31*
X137460000Y-47500000D03*
D32*
X140000000Y-47500000D03*
D31*
X155956000Y-101600000D03*
D32*
X153416000Y-101600000D03*
D31*
X163068000Y-101600000D03*
D32*
X160528000Y-101600000D03*
D31*
X132380000Y-47500000D03*
D32*
X134920000Y-47500000D03*
D33*
X179324000Y-49276000D03*
D34*
X179324000Y-46736000D03*
X179324000Y-44196000D03*
D29*
X204978000Y-129286000D03*
D30*
X204978000Y-124206000D03*
D12*
X204354000Y-132132000D03*
D13*
X201814000Y-132132000D03*
X199274000Y-132132000D03*
D12*
X199390000Y-128432000D03*
D13*
X201930000Y-128432000D03*
D12*
X194354000Y-128270000D03*
D13*
X191814000Y-128270000D03*
D14*
X185166000Y-47244000D03*
D23*
X185166000Y-49244000D03*
D29*
X168910000Y-101346000D03*
D30*
X168910000Y-96266000D03*
D29*
X166624000Y-101346000D03*
D30*
X166624000Y-96266000D03*
D29*
X159258000Y-98044000D03*
D30*
X164338000Y-98044000D03*
D29*
X178562000Y-126492000D03*
D30*
X183642000Y-126492000D03*
D23*
X132588000Y-67818000D03*
X132588000Y-70318000D03*
X129286000Y-67818000D03*
X129286000Y-70318000D03*
X187198000Y-108458000D03*
X184698000Y-108458000D03*
X172720000Y-124968000D03*
X175220000Y-124968000D03*
X179832000Y-131064000D03*
X182332000Y-131064000D03*
X191262000Y-108458000D03*
X191262000Y-110958000D03*
X174244000Y-108204000D03*
X174244000Y-110704000D03*
X170942000Y-110744000D03*
X170942000Y-108244000D03*
X172720000Y-128270000D03*
X175220000Y-128270000D03*
X159258000Y-128270000D03*
X161758000Y-128270000D03*
X150368000Y-122682000D03*
X147868000Y-122682000D03*
X167640000Y-108204000D03*
X167640000Y-110704000D03*
X161036000Y-108204000D03*
X161036000Y-110704000D03*
X164338000Y-108204000D03*
X164338000Y-110704000D03*
X197866000Y-108458000D03*
X197866000Y-110958000D03*
X201168000Y-110998000D03*
X201168000Y-108498000D03*
X192786000Y-47752000D03*
X192786000Y-50252000D03*
X153162000Y-41656000D03*
X150662000Y-41656000D03*
X194564000Y-108458000D03*
X194564000Y-110958000D03*
X198628000Y-101854000D03*
X201128000Y-101854000D03*
X181610000Y-91948000D03*
X179110000Y-91948000D03*
X188722000Y-91948000D03*
X186222000Y-91948000D03*
X181610000Y-99060000D03*
X179110000Y-99060000D03*
X177546000Y-108204000D03*
X177546000Y-110704000D03*
D12*
X150368000Y-110998000D03*
D13*
X147828000Y-110998000D03*
D35*
X156464000Y-110490000D03*
X156464000Y-115490000D03*
D12*
X124000000Y-66500000D03*
D13*
X124000000Y-63960000D03*
X124000000Y-61420000D03*
D36*
X123500000Y-105500000D03*
X125240000Y-57000000D03*
D37*
X152950000Y-77900000D03*
X154950000Y-77900000D03*
X156950000Y-77900000D03*
X158950000Y-77900000D03*
D38*
X153700000Y-74630000D03*
X155950000Y-74630000D03*
X158200000Y-74630000D03*
D39*
X155950000Y-73430000D03*
D38*
X153700000Y-73280000D03*
X155950000Y-73280000D03*
X158200000Y-73280000D03*
X153700000Y-71930000D03*
X155950000Y-71930000D03*
X158200000Y-71930000D03*
D40*
X152400000Y-70530000D03*
D41*
X155950000Y-70530000D03*
D40*
X159500000Y-70530000D03*
D42*
X154250000Y-70255000D03*
X157650000Y-70255000D03*
D43*
X148500000Y-77530000D03*
X146500000Y-77530000D03*
X144500000Y-77530000D03*
X142500000Y-77530000D03*
D44*
X147750000Y-80800000D03*
X145500000Y-80800000D03*
X143250000Y-80800000D03*
D45*
X145500000Y-82000000D03*
D44*
X147750000Y-82150000D03*
X145500000Y-82150000D03*
X143250000Y-82150000D03*
X147750000Y-83500000D03*
X145500000Y-83500000D03*
X143250000Y-83500000D03*
D46*
X149050000Y-84900000D03*
D47*
X145500000Y-84900000D03*
D46*
X141950000Y-84900000D03*
D48*
X147200000Y-85175000D03*
X143800000Y-85175000D03*
D36*
X206520000Y-105260000D03*
X200520000Y-57000000D03*
D49*
X150500000Y-78030000D03*
D50*
X177292000Y-129540000D03*
X161036000Y-130048000D03*
X148336000Y-127217010D03*
X169672000Y-127217010D03*
X150787000Y-50713000D03*
X160528000Y-96012000D03*
X196500000Y-60500000D03*
X199136000Y-90932000D03*
X175514000Y-57658000D03*
X178562000Y-59629950D03*
X199000000Y-67500000D03*
X199000000Y-66500000D03*
X177546000Y-59436000D03*
X167956399Y-60137000D03*
X137700000Y-123600000D03*
X136800000Y-122800002D03*
X143024998Y-120396000D03*
X172954021Y-98044000D03*
X135700000Y-122700000D03*
X134620000Y-132588000D03*
X134700000Y-122699998D03*
X171704000Y-100076000D03*
X144960160Y-112647417D03*
X144985348Y-113743352D03*
X172504010Y-99060000D03*
X142299998Y-122800000D03*
X142240000Y-112776000D03*
X182000000Y-55200000D03*
X184150000Y-129540000D03*
X124714000Y-113786000D03*
X126000000Y-61420000D03*
X142450000Y-75530000D03*
D51*
X133170000Y-82150000D02*
X143250000Y-82150000D01*
X133040000Y-82280000D02*
X133170000Y-82150000D01*
D52*
X161226000Y-75624000D02*
X161226000Y-69024000D01*
X161226000Y-69024000D02*
X157226000Y-65024000D01*
D51*
X138278686Y-73280000D02*
X133040000Y-78518686D01*
X133040000Y-78518686D02*
X133040000Y-79740000D01*
X153700000Y-73280000D02*
X138278686Y-73280000D01*
X150000000Y-77530000D02*
X150500000Y-78030000D01*
X150630000Y-77900000D02*
X150500000Y-78030000D01*
X148500000Y-77530000D02*
X150000000Y-77530000D01*
X152950000Y-77900000D02*
X150630000Y-77900000D01*
D52*
X182688001Y-111951999D02*
X178749591Y-111951999D01*
X187198000Y-108458000D02*
X184404000Y-111252000D01*
X183388000Y-111252000D02*
X182688001Y-111951999D01*
X178749591Y-111951999D02*
X176841990Y-113859600D01*
X137635989Y-132595989D02*
X158488011Y-132595989D01*
X176841990Y-113859600D02*
X176841990Y-118547580D01*
X158488011Y-132595989D02*
X161036000Y-130048000D01*
X184404000Y-111252000D02*
X183388000Y-111252000D01*
X177038000Y-118743590D02*
X177038000Y-129286000D01*
X176841990Y-118547580D02*
X177038000Y-118743590D01*
X133040000Y-128000000D02*
X137635989Y-132595989D01*
X177038000Y-129286000D02*
X177292000Y-129540000D01*
X173482000Y-115316000D02*
X173482000Y-118110000D01*
X175768000Y-120650000D02*
X175768000Y-120396000D01*
X173482000Y-118110000D02*
X175768000Y-120396000D01*
X172720000Y-123698000D02*
X175768000Y-120650000D01*
X172720000Y-124968000D02*
X172720000Y-123698000D01*
X161036000Y-108204000D02*
X161036000Y-105496000D01*
X160782000Y-118364000D02*
X162161001Y-116984999D01*
X160782000Y-118364000D02*
X157470999Y-121675001D01*
X161036000Y-105496000D02*
X160800000Y-105260000D01*
X162161001Y-116984999D02*
X162161001Y-109329001D01*
X162161001Y-109329001D02*
X161036000Y-108204000D01*
X157470999Y-129295001D02*
X155702000Y-131064000D01*
X157470999Y-121675001D02*
X157470999Y-129295001D01*
X133040000Y-125460000D02*
X146578990Y-125460000D01*
X146578990Y-125460000D02*
X148336000Y-127217010D01*
X172720000Y-128270000D02*
X169926000Y-131064000D01*
X169926000Y-127471010D02*
X169672000Y-127217010D01*
X169926000Y-131064000D02*
X169926000Y-127471010D01*
X157734000Y-131064000D02*
X156708999Y-132089001D01*
X131688601Y-126811399D02*
X133610529Y-126811399D01*
X135949130Y-129150000D02*
X148708000Y-129150000D01*
X151647001Y-132089001D02*
X150622000Y-131064000D01*
X159258000Y-128270000D02*
X159258000Y-129540000D01*
X133610529Y-126811399D02*
X135949130Y-129150000D01*
X148708000Y-129150000D02*
X150622000Y-131064000D01*
X156708999Y-132089001D02*
X151647001Y-132089001D01*
X130500000Y-128000000D02*
X131688601Y-126811399D01*
X159258000Y-129540000D02*
X157734000Y-131064000D01*
X150368000Y-122682000D02*
X148626999Y-124423001D01*
X130500000Y-125460000D02*
X131688601Y-124271399D01*
X136223001Y-124423001D02*
X136071399Y-124271399D01*
X148626999Y-124423001D02*
X136223001Y-124423001D01*
X150622000Y-122428000D02*
X150368000Y-122682000D01*
X153416000Y-122428000D02*
X150622000Y-122428000D01*
X153416000Y-122428000D02*
X153416000Y-124714000D01*
X131688601Y-124271399D02*
X136071399Y-124271399D01*
X167640000Y-108204000D02*
X169672000Y-110236000D01*
X167640000Y-107020000D02*
X165880000Y-105260000D01*
X169672000Y-110236000D02*
X169672000Y-117094000D01*
X164846000Y-121920000D02*
X164846000Y-131064000D01*
X168402000Y-118364000D02*
X164846000Y-121920000D01*
X167640000Y-108204000D02*
X167640000Y-107020000D01*
X169672000Y-117094000D02*
X168402000Y-118364000D01*
X172466000Y-109768000D02*
X172466000Y-114046000D01*
X168402000Y-120904000D02*
X171196000Y-118110000D01*
X170942000Y-107782000D02*
X170942000Y-108244000D01*
X168420000Y-105260000D02*
X170942000Y-107782000D01*
X170942000Y-108244000D02*
X172466000Y-109768000D01*
X171196000Y-118110000D02*
X171196000Y-115316000D01*
X172466000Y-114046000D02*
X171196000Y-115316000D01*
D53*
X127762000Y-64762000D02*
X126960000Y-63960000D01*
D51*
X208280000Y-54356000D02*
X205636000Y-57000000D01*
X206520000Y-57000000D02*
X203980000Y-57000000D01*
D52*
X208280000Y-54356000D02*
X208280000Y-58420000D01*
D54*
X209000000Y-112056000D02*
X209000000Y-59480000D01*
D52*
X123500000Y-63460000D02*
X124000000Y-63960000D01*
X173323997Y-97318999D02*
X167857001Y-97318999D01*
X164611999Y-102825001D02*
X150534999Y-102825001D01*
D51*
X154686000Y-45466000D02*
X154940000Y-45212000D01*
D52*
X148100000Y-106408000D02*
X148100000Y-105260000D01*
D53*
X139220000Y-50000000D02*
X139436000Y-49784000D01*
D54*
X132588000Y-70318000D02*
X129286000Y-70318000D01*
D52*
X154940000Y-43688000D02*
X154940000Y-43942000D01*
X153162000Y-46922988D02*
X152620494Y-47464494D01*
X164846000Y-100330000D02*
X164846000Y-102591000D01*
D51*
X154940000Y-43942000D02*
X154432000Y-43942000D01*
D54*
X209000000Y-59480000D02*
X208110000Y-58590000D01*
X200620000Y-115880000D02*
X205176000Y-115880000D01*
D51*
X149860000Y-49784000D02*
X152620494Y-47023506D01*
D52*
X174582000Y-99378000D02*
X174582000Y-98577002D01*
D51*
X154178000Y-45466000D02*
X154686000Y-45466000D01*
D52*
X208280000Y-58420000D02*
X208110000Y-58590000D01*
D51*
X157734000Y-40894000D02*
X207264000Y-40894000D01*
X149098000Y-49276000D02*
X149098000Y-49784000D01*
X205636000Y-57000000D02*
X203980000Y-57000000D01*
X149098000Y-49784000D02*
X149860000Y-49784000D01*
D52*
X146558000Y-107950000D02*
X148100000Y-106408000D01*
D51*
X154432000Y-43942000D02*
X149098000Y-49276000D01*
X207264000Y-40894000D02*
X208280000Y-41910000D01*
D52*
X164846000Y-102591000D02*
X164611999Y-102825001D01*
D54*
X208110000Y-58590000D02*
X206520000Y-57000000D01*
D52*
X153162000Y-41656000D02*
X153162000Y-46922988D01*
D51*
X134980000Y-51700000D02*
X137520000Y-51700000D01*
D53*
X129286000Y-70318000D02*
X127762000Y-68794000D01*
D54*
X205176000Y-115880000D02*
X209000000Y-112056000D01*
D51*
X179324000Y-44196000D02*
X179324000Y-41402000D01*
D53*
X126960000Y-63960000D02*
X124000000Y-63960000D01*
X122500000Y-63460000D02*
X123500000Y-63460000D01*
D52*
X144526000Y-107950000D02*
X146558000Y-107950000D01*
D53*
X127800000Y-50000000D02*
X139220000Y-50000000D01*
X127762000Y-68794000D02*
X127762000Y-64762000D01*
X127800000Y-50000000D02*
X122500000Y-55300000D01*
D51*
X139436000Y-49784000D02*
X149098000Y-49784000D01*
X152654000Y-46990000D02*
X154178000Y-45466000D01*
D52*
X167857001Y-97318999D02*
X164846000Y-100330000D01*
D53*
X122500000Y-55300000D02*
X122500000Y-63460000D01*
D51*
X154940000Y-45212000D02*
X154940000Y-43688000D01*
X208280000Y-41910000D02*
X208280000Y-54356000D01*
X154940000Y-43688000D02*
X157734000Y-40894000D01*
X137520000Y-51700000D02*
X139436000Y-49784000D01*
D52*
X150534999Y-102825001D02*
X148100000Y-105260000D01*
X174582000Y-98577002D02*
X173323997Y-97318999D01*
D55*
X147680000Y-64400000D02*
X147680000Y-60346000D01*
D52*
X172614000Y-96266000D02*
X174582000Y-94298000D01*
D51*
X200152000Y-49022000D02*
X204978000Y-49022000D01*
X204978000Y-49022000D02*
X205000000Y-49000000D01*
D52*
X167132000Y-96266000D02*
X169418000Y-96266000D01*
D55*
X153633010Y-53594000D02*
X153633010Y-57113010D01*
D52*
X147540000Y-47466000D02*
X147574000Y-47500000D01*
X147540000Y-45000000D02*
X147540000Y-47466000D01*
D55*
X152072020Y-58674000D02*
X153633010Y-57113010D01*
D52*
X150787000Y-50747990D02*
X153633010Y-53594000D01*
D51*
X176530000Y-51816000D02*
X197358000Y-51816000D01*
X174752000Y-53594000D02*
X176530000Y-51816000D01*
D55*
X149352000Y-58674000D02*
X152072020Y-58674000D01*
D52*
X150787000Y-50713000D02*
X150787000Y-50747990D01*
X169418000Y-96266000D02*
X172614000Y-96266000D01*
D51*
X153633010Y-53594000D02*
X174752000Y-53594000D01*
X197358000Y-51816000D02*
X200152000Y-49022000D01*
D55*
X147680000Y-60346000D02*
X149352000Y-58674000D01*
D52*
X157226000Y-98044000D02*
X155448000Y-98044000D01*
X153416000Y-100076000D02*
X153416000Y-101600000D01*
X155448000Y-98044000D02*
X153416000Y-100076000D01*
X160528000Y-100330000D02*
X160528000Y-101600000D01*
X164338000Y-98044000D02*
X162814000Y-98044000D01*
X162814000Y-98044000D02*
X160528000Y-100330000D01*
X121799000Y-69489000D02*
X124500000Y-72190000D01*
X121799000Y-55009636D02*
X121799000Y-69489000D01*
X129308636Y-47500000D02*
X121799000Y-55009636D01*
X132380000Y-47500000D02*
X129308636Y-47500000D01*
X124500000Y-79810000D02*
X130430000Y-79810000D01*
D51*
X133040000Y-79740000D02*
X130500000Y-79740000D01*
D52*
X130430000Y-79810000D02*
X130500000Y-79740000D01*
D51*
X133040000Y-82280000D02*
X133200000Y-82120000D01*
X133040000Y-82280000D02*
X130500000Y-82280000D01*
D52*
X130500000Y-82280000D02*
X124500000Y-88280000D01*
X124500000Y-88280000D02*
X124500000Y-89810000D01*
X140000000Y-47500000D02*
X142494000Y-47500000D01*
D51*
X187198000Y-43180000D02*
X183388000Y-46990000D01*
X184912000Y-46990000D02*
X183388000Y-46990000D01*
X192532000Y-47498000D02*
X185420000Y-47498000D01*
X183388000Y-46990000D02*
X181102000Y-49276000D01*
X198374000Y-43180000D02*
X198120000Y-42926000D01*
X185420000Y-47498000D02*
X185166000Y-47244000D01*
X195072000Y-45466000D02*
X192786000Y-47752000D01*
X195326000Y-42926000D02*
X195072000Y-43180000D01*
X181102000Y-49276000D02*
X179324000Y-49276000D01*
X198120000Y-42926000D02*
X195326000Y-42926000D01*
X195072000Y-43180000D02*
X187198000Y-43180000D01*
X192786000Y-47752000D02*
X192532000Y-47498000D01*
X185166000Y-47244000D02*
X184912000Y-46990000D01*
X195072000Y-43180000D02*
X195072000Y-45466000D01*
D53*
X173990000Y-76708000D02*
X173736000Y-76962000D01*
X134040000Y-91440000D02*
X133040000Y-92440000D01*
X176530000Y-76708000D02*
X173990000Y-76708000D01*
X172466000Y-78232000D02*
X172466000Y-90170000D01*
X176530000Y-74168000D02*
X172466000Y-78232000D01*
X172466000Y-90170000D02*
X171196000Y-91440000D01*
X171196000Y-91440000D02*
X134040000Y-91440000D01*
D52*
X176536998Y-63246000D02*
X172636401Y-59345403D01*
X181586108Y-71913893D02*
X188413893Y-71913893D01*
X176536998Y-66864783D02*
X181586108Y-71913893D01*
X188413893Y-71913893D02*
X188920000Y-72420000D01*
X172636401Y-57863599D02*
X173500000Y-57000000D01*
X172636401Y-59345403D02*
X172636401Y-57863599D01*
X176536998Y-63246000D02*
X176536998Y-66864783D01*
X188920000Y-72420000D02*
X188920000Y-73500000D01*
X190246000Y-87376000D02*
X187198000Y-84328000D01*
X187198000Y-79756000D02*
X187198000Y-79248000D01*
X190246000Y-82804000D02*
X187198000Y-79756000D01*
D56*
X171947064Y-94164022D02*
X163645978Y-94164022D01*
X159258000Y-98044000D02*
X159258000Y-97536000D01*
X176011064Y-90100022D02*
X171947064Y-94164022D01*
X159766000Y-98044000D02*
X159258000Y-98044000D01*
X130500000Y-94980000D02*
X131763601Y-93716399D01*
X181956011Y-88386532D02*
X180242521Y-90100022D01*
X181956011Y-81626011D02*
X181956011Y-88386532D01*
X159258000Y-97536000D02*
X155438399Y-93716399D01*
X180242521Y-90100022D02*
X176011064Y-90100022D01*
X163645978Y-94164022D02*
X159766000Y-98044000D01*
X179578000Y-79248000D02*
X181956011Y-81626011D01*
X131763601Y-93716399D02*
X155438399Y-93716399D01*
X181356000Y-86106000D02*
X181356000Y-88138000D01*
X152146000Y-98044000D02*
X152146000Y-97536000D01*
X179578000Y-84328000D02*
X181356000Y-86106000D01*
X162975989Y-93564011D02*
X160528000Y-96012000D01*
X179993989Y-89500011D02*
X175762532Y-89500011D01*
X181356000Y-88138000D02*
X179993989Y-89500011D01*
X149590000Y-94980000D02*
X133040000Y-94980000D01*
X175762532Y-89500011D02*
X171698532Y-93564011D01*
X152146000Y-97536000D02*
X149590000Y-94980000D01*
X171698532Y-93564011D02*
X162975989Y-93564011D01*
D52*
X170180000Y-57780000D02*
X170180000Y-59436000D01*
X170960000Y-57000000D02*
X170180000Y-57780000D01*
X188740000Y-105260000D02*
X188740000Y-102598000D01*
X194564000Y-108458000D02*
X194564000Y-107696000D01*
X188740000Y-102598000D02*
X189738000Y-101600000D01*
X194564000Y-107696000D02*
X193802000Y-106934000D01*
X193802000Y-106934000D02*
X190414000Y-106934000D01*
X190414000Y-106934000D02*
X188740000Y-105260000D01*
X186200000Y-105260000D02*
X186200000Y-102870000D01*
X186200000Y-102870000D02*
X187470000Y-101600000D01*
X188740000Y-100330000D02*
X197104000Y-100330000D01*
X197104000Y-100330000D02*
X198628000Y-101854000D01*
X187470000Y-101600000D02*
X188740000Y-100330000D01*
X166116000Y-109982000D02*
X164338000Y-108204000D01*
X164338000Y-108204000D02*
X164338000Y-106258000D01*
X158496000Y-122428000D02*
X160020000Y-120904000D01*
X166116000Y-115570000D02*
X166116000Y-109982000D01*
X160782000Y-120904000D02*
X166116000Y-115570000D01*
X160020000Y-120904000D02*
X160782000Y-120904000D01*
X164338000Y-106258000D02*
X163340000Y-105260000D01*
X144780000Y-110998000D02*
X141224000Y-107442000D01*
X147828000Y-110998000D02*
X144780000Y-110998000D01*
X141224000Y-107442000D02*
X140970000Y-107442000D01*
X139446000Y-107950000D02*
X140330000Y-107950000D01*
X140970000Y-107442000D02*
X140904000Y-107376000D01*
X140330000Y-107950000D02*
X140904000Y-107376000D01*
X140904000Y-107376000D02*
X143020000Y-105260000D01*
X196500000Y-60500000D02*
X193080000Y-60500000D01*
X193080000Y-60500000D02*
X188580000Y-65000000D01*
X181650000Y-96520000D02*
X179110000Y-99060000D01*
X191120000Y-65000000D02*
X199898000Y-65000000D01*
X199898000Y-90170000D02*
X199136000Y-90932000D01*
X199898000Y-65000000D02*
X199898000Y-90170000D01*
X185166000Y-96520000D02*
X181650000Y-96520000D01*
X176167999Y-58311999D02*
X175514000Y-57658000D01*
X183660000Y-57000000D02*
X182348001Y-58311999D01*
X182348001Y-58311999D02*
X176167999Y-58311999D01*
X158260000Y-57000000D02*
X158260000Y-57168000D01*
X158260000Y-57168000D02*
X159766000Y-58674000D01*
X170180000Y-66294000D02*
X170180000Y-67818000D01*
X170180000Y-67818000D02*
X168910000Y-69088000D01*
X168910000Y-69088000D02*
X168910000Y-71628000D01*
X170180000Y-66040000D02*
X170180000Y-66294000D01*
X159766000Y-58674000D02*
X162814000Y-58674000D01*
X162814000Y-58674000D02*
X170180000Y-66040000D01*
X171205001Y-65033001D02*
X171205001Y-71872999D01*
X155720000Y-57000000D02*
X157856000Y-54864000D01*
X167231399Y-61059399D02*
X170180000Y-64008000D01*
X165503130Y-54864000D02*
X167231399Y-56592269D01*
X167231399Y-56592269D02*
X167231399Y-61059399D01*
X168910000Y-76708000D02*
X168910000Y-74168000D01*
X170180000Y-64008000D02*
X171205001Y-65033001D01*
X171205001Y-71872999D02*
X168910000Y-74168000D01*
X157856000Y-54864000D02*
X165503130Y-54864000D01*
X203980000Y-62080000D02*
X201529950Y-59629950D01*
X201529950Y-59629950D02*
X178562000Y-59629950D01*
X201700000Y-82140000D02*
X203980000Y-79860000D01*
X198726000Y-92300000D02*
X200562000Y-92300000D01*
X195326000Y-85090000D02*
X195326000Y-88900000D01*
X195326000Y-88900000D02*
X198726000Y-92300000D01*
X200562000Y-92300000D02*
X201700000Y-91162000D01*
X201700000Y-91162000D02*
X201700000Y-82140000D01*
X198438410Y-92900000D02*
X193802000Y-88263590D01*
X193802000Y-84328000D02*
X195326000Y-82804000D01*
X200598411Y-92900000D02*
X198438410Y-92900000D01*
X202200000Y-84180000D02*
X202200000Y-91298411D01*
X202200000Y-91298411D02*
X200598411Y-92900000D01*
X203980000Y-82400000D02*
X202200000Y-84180000D01*
X195326000Y-82804000D02*
X195326000Y-80518000D01*
X193802000Y-88263590D02*
X193802000Y-84328000D01*
X204500000Y-104618000D02*
X204500000Y-101342349D01*
X180848000Y-113538000D02*
X178562000Y-115824000D01*
X195834000Y-109728000D02*
X193548000Y-109728000D01*
X204500000Y-101342349D02*
X205200000Y-100642349D01*
X206520000Y-95100000D02*
X205200000Y-96420000D01*
X183134000Y-125984000D02*
X183134000Y-113538000D01*
X202438000Y-106680000D02*
X196850000Y-106680000D01*
X193040000Y-110236000D02*
X193040000Y-111252000D01*
X190754000Y-113538000D02*
X180848000Y-113538000D01*
X193040000Y-111252000D02*
X190754000Y-113538000D01*
X183642000Y-126492000D02*
X183134000Y-125984000D01*
X196342000Y-107188000D02*
X196342000Y-109220000D01*
X196850000Y-106680000D02*
X196342000Y-107188000D01*
X193548000Y-109728000D02*
X193040000Y-110236000D01*
X196342000Y-109220000D02*
X195834000Y-109728000D01*
X202438000Y-106680000D02*
X204500000Y-104618000D01*
X205200000Y-100642349D02*
X205200000Y-96420000D01*
X190500000Y-124714000D02*
X190500000Y-116714998D01*
X201168000Y-109321002D02*
X201168000Y-108498000D01*
X192532000Y-114300000D02*
X193960000Y-114300000D01*
X187452000Y-131064000D02*
X187452000Y-127762000D01*
X189274000Y-132080000D02*
X188468000Y-132080000D01*
X190371002Y-116714998D02*
X190500000Y-116714998D01*
X186182000Y-120904000D02*
X190371002Y-116714998D01*
X196189002Y-114300000D02*
X201168000Y-109321002D01*
X190500000Y-116332000D02*
X192532000Y-114300000D01*
X190500000Y-116714998D02*
X190500000Y-116332000D01*
X193960000Y-114300000D02*
X196189002Y-114300000D01*
X188468000Y-132080000D02*
X187452000Y-131064000D01*
X193960000Y-114300000D02*
X195540000Y-115880000D01*
X187452000Y-127762000D02*
X190500000Y-124714000D01*
X195230000Y-118110000D02*
X193000000Y-115880000D01*
X206698010Y-123894010D02*
X200914000Y-118110000D01*
X199274000Y-132132000D02*
X200449001Y-133307001D01*
X200914000Y-118110000D02*
X195230000Y-118110000D01*
X200449001Y-133307001D02*
X205464001Y-133307001D01*
X205464001Y-133307001D02*
X206698010Y-132072992D01*
X206698010Y-132072992D02*
X206698010Y-123894010D01*
X153924000Y-107950000D02*
X156464000Y-110490000D01*
X151638000Y-107950000D02*
X153924000Y-107950000D01*
X150368000Y-110998000D02*
X150368000Y-109220000D01*
X150368000Y-109220000D02*
X151638000Y-107950000D01*
X136234000Y-46274000D02*
X137460000Y-47500000D01*
X121500000Y-79190000D02*
X121500000Y-69827810D01*
X121348000Y-69675810D02*
X121348000Y-54822826D01*
X121348000Y-54822826D02*
X121500000Y-54670826D01*
X129726000Y-46274000D02*
X136234000Y-46274000D01*
X121500000Y-54670826D02*
X121500000Y-54500000D01*
X121500000Y-69827810D02*
X121348000Y-69675810D01*
X124500000Y-82190000D02*
X121500000Y-79190000D01*
X121500000Y-54500000D02*
X129726000Y-46274000D01*
X189304988Y-71344988D02*
X191460000Y-73500000D01*
X177365987Y-62795989D02*
X175260000Y-60690002D01*
X177365987Y-62795989D02*
X177365987Y-67055962D01*
X190246000Y-74714000D02*
X191460000Y-73500000D01*
X181655013Y-71344988D02*
X189304988Y-71344988D01*
X190246000Y-77500000D02*
X190246000Y-74714000D01*
X177365987Y-67055962D02*
X181655013Y-71344988D01*
X175260000Y-60690002D02*
X175260000Y-59436000D01*
X186000000Y-67500000D02*
X199000000Y-67500000D01*
X183500000Y-65000000D02*
X186000000Y-67500000D01*
X199000000Y-66500000D02*
X187540000Y-66500000D01*
X187540000Y-66500000D02*
X186040000Y-65000000D01*
X186200000Y-57000000D02*
X184417999Y-58782001D01*
X184417999Y-58782001D02*
X178199999Y-58782001D01*
X178199999Y-58782001D02*
X177546000Y-59436000D01*
X172852400Y-65033001D02*
X167956399Y-60137000D01*
X172852400Y-65033001D02*
X172852400Y-66352400D01*
X176996405Y-67962000D02*
X181300000Y-72265595D01*
X181300000Y-72265595D02*
X181300000Y-73500000D01*
X172852400Y-66352400D02*
X174462000Y-67962000D01*
X174462000Y-67962000D02*
X176996405Y-67962000D01*
D53*
X176530000Y-69088000D02*
X173863000Y-71755000D01*
X169570001Y-90424000D02*
X133564000Y-90424000D01*
X176530000Y-71628000D02*
X173990000Y-71628000D01*
X170942000Y-89052001D02*
X169570001Y-90424000D01*
X170942000Y-74676000D02*
X170942000Y-89052001D01*
X173863000Y-71755000D02*
X170942000Y-74676000D01*
X173990000Y-71628000D02*
X173863000Y-71755000D01*
X133564000Y-90424000D02*
X133040000Y-89900000D01*
D52*
X133040000Y-112760000D02*
X137700000Y-117420000D01*
X137700000Y-117420000D02*
X137700000Y-123600000D01*
X133040000Y-115300000D02*
X136800000Y-119060000D01*
X136800000Y-119060000D02*
X136800000Y-122800002D01*
X127704010Y-115149990D02*
X126014000Y-116840000D01*
X130500000Y-105140000D02*
X127704010Y-107935990D01*
X127704010Y-108908010D02*
X138749010Y-108908010D01*
X141891999Y-112050999D02*
X142588001Y-112050999D01*
X142588001Y-112050999D02*
X143024998Y-112487996D01*
X143024998Y-112487996D02*
X143024998Y-120396000D01*
X138749010Y-108908010D02*
X141891999Y-112050999D01*
X127704010Y-108908010D02*
X127704010Y-115149990D01*
X127704010Y-107935990D02*
X127704010Y-108908010D01*
X166624000Y-101346000D02*
X169926000Y-98044000D01*
X169926000Y-98044000D02*
X172954021Y-98044000D01*
X195540000Y-123500000D02*
X197115011Y-121924989D01*
X206248000Y-130238000D02*
X204354000Y-132132000D01*
X201346402Y-121924990D02*
X203454000Y-124032588D01*
X206248000Y-128778000D02*
X206248000Y-130238000D01*
X203454000Y-124032588D02*
X203454000Y-127125590D01*
X197115011Y-121924989D02*
X201346402Y-121924990D01*
X203454000Y-127125590D02*
X204090410Y-127762000D01*
X204090410Y-127762000D02*
X205232000Y-127762000D01*
X205232000Y-127762000D02*
X206248000Y-128778000D01*
X194354000Y-131182998D02*
X194354000Y-132080000D01*
X198080000Y-127456998D02*
X194354000Y-131182998D01*
X198080000Y-123500000D02*
X198080000Y-127456998D01*
X199390000Y-128432000D02*
X199390000Y-129708000D01*
X199390000Y-129708000D02*
X201814000Y-132132000D01*
X135700000Y-120500000D02*
X135700000Y-122700000D01*
X133040000Y-117840000D02*
X135700000Y-120500000D01*
X134700000Y-122040000D02*
X134700000Y-122699998D01*
X136144000Y-134112000D02*
X134620000Y-132588000D01*
X194354000Y-128940000D02*
X194354000Y-129330000D01*
X191814000Y-132080000D02*
X189782000Y-134112000D01*
X191814000Y-131870000D02*
X191814000Y-132080000D01*
X194354000Y-129330000D02*
X191814000Y-131870000D01*
X189782000Y-134112000D02*
X136144000Y-134112000D01*
X133040000Y-120380000D02*
X134700000Y-122040000D01*
X201930000Y-128432000D02*
X204124000Y-128432000D01*
X204124000Y-128432000D02*
X204978000Y-129286000D01*
X188722000Y-129286000D02*
X191468000Y-129286000D01*
X191468000Y-129286000D02*
X191814000Y-128940000D01*
D56*
X158149989Y-104653468D02*
X158149989Y-111852011D01*
X157354583Y-112647417D02*
X144960160Y-112647417D01*
X171704000Y-100641685D02*
X168967685Y-103378000D01*
X171704000Y-100076000D02*
X171704000Y-100641685D01*
X159425457Y-103378000D02*
X158149989Y-104653468D01*
X168967685Y-103378000D02*
X159425457Y-103378000D01*
X158149989Y-111852011D02*
X157354583Y-112647417D01*
X159673989Y-103978011D02*
X158750000Y-104902000D01*
X158750000Y-104902000D02*
X158750000Y-112100543D01*
X169216217Y-103978011D02*
X159673989Y-103978011D01*
X157566543Y-113284000D02*
X145444700Y-113284000D01*
X145444700Y-113284000D02*
X144985348Y-113743352D01*
X172504010Y-99060000D02*
X172504010Y-100690218D01*
X172504010Y-100690218D02*
X169216217Y-103978011D01*
X158750000Y-112100543D02*
X157566543Y-113284000D01*
D57*
X171853000Y-132991000D02*
X162963000Y-132991000D01*
X128778000Y-129540000D02*
X129540000Y-130302000D01*
X137428878Y-133096000D02*
X158695108Y-133096000D01*
X130500000Y-110220000D02*
X128778000Y-111942000D01*
X130500000Y-110220000D02*
X133040000Y-110220000D01*
X158800108Y-132991000D02*
X162709000Y-132991000D01*
D52*
X160782000Y-123444000D02*
X159512000Y-124714000D01*
D57*
X188722000Y-124106000D02*
X188722000Y-124206000D01*
X181102000Y-125984000D02*
X178562000Y-123444000D01*
X134634878Y-130302000D02*
X137428878Y-133096000D01*
X171958000Y-131064000D02*
X171958000Y-132886000D01*
D52*
X162814000Y-132842000D02*
X162963000Y-132991000D01*
D57*
X184404000Y-128524000D02*
X181102000Y-128524000D01*
X188722000Y-124206000D02*
X184404000Y-128524000D01*
D52*
X163513999Y-130364001D02*
X163513999Y-126175999D01*
D57*
X129540000Y-130302000D02*
X134634878Y-130302000D01*
X172063000Y-132991000D02*
X180699000Y-132991000D01*
X158695108Y-133096000D02*
X158800108Y-132991000D01*
X171958000Y-132886000D02*
X171853000Y-132991000D01*
X181102000Y-132588000D02*
X181102000Y-128524000D01*
D52*
X163513999Y-126175999D02*
X160782000Y-123444000D01*
D57*
X181102000Y-128524000D02*
X181102000Y-125984000D01*
D52*
X159512000Y-124714000D02*
X158496000Y-124714000D01*
X162814000Y-131064000D02*
X162814000Y-132842000D01*
X162814000Y-131064000D02*
X163513999Y-130364001D01*
D57*
X171958000Y-132886000D02*
X172063000Y-132991000D01*
X128778000Y-111942000D02*
X128778000Y-129540000D01*
X180699000Y-132991000D02*
X181102000Y-132588000D01*
D52*
X181946000Y-55200000D02*
X181356000Y-54610000D01*
X182000000Y-55200000D02*
X181946000Y-55200000D01*
X177038000Y-131064000D02*
X179832000Y-131064000D01*
X170434000Y-54610000D02*
X168232000Y-56812000D01*
X181356000Y-54610000D02*
X170434000Y-54610000D01*
X142299998Y-122800000D02*
X142299998Y-116499998D01*
X142299998Y-116499998D02*
X142240000Y-116440000D01*
X168232000Y-56812000D02*
X168420000Y-57000000D01*
X142240000Y-116440000D02*
X142240000Y-112776000D01*
X191262000Y-108458000D02*
X189738000Y-106934000D01*
X188468000Y-111252000D02*
X191262000Y-108458000D01*
X177292000Y-114046000D02*
X177292000Y-117094000D01*
X177292000Y-117094000D02*
X178562000Y-118364000D01*
X186690000Y-113030000D02*
X178308000Y-113030000D01*
X188468000Y-111252000D02*
X186690000Y-113030000D01*
X189738000Y-106934000D02*
X185334000Y-106934000D01*
X185334000Y-106934000D02*
X183660000Y-105260000D01*
X178308000Y-113030000D02*
X177292000Y-114046000D01*
X173904000Y-108204000D02*
X174244000Y-108204000D01*
X170960000Y-105260000D02*
X173904000Y-108204000D01*
X175768000Y-109728000D02*
X175768000Y-115316000D01*
X174244000Y-108204000D02*
X175768000Y-109728000D01*
X176444000Y-108204000D02*
X177546000Y-108204000D01*
X124714000Y-126238000D02*
X129278010Y-130802010D01*
X129278010Y-130802010D02*
X134427768Y-130802010D01*
X173500000Y-105260000D02*
X176444000Y-108204000D01*
X181464992Y-133596010D02*
X184150000Y-130911002D01*
X134427768Y-130802010D02*
X137221768Y-133596010D01*
X184150000Y-130911002D02*
X184150000Y-129540000D01*
X137221768Y-133596010D02*
X181464992Y-133596010D01*
D51*
X198255000Y-73780000D02*
X198255000Y-76320000D01*
X198255000Y-81400000D02*
X198255000Y-78860000D01*
X198255000Y-71240000D02*
X198255000Y-73780000D01*
X198255000Y-78860000D02*
X198255000Y-76320000D01*
D52*
X123414000Y-116840000D02*
X123414000Y-119858000D01*
X123414000Y-119858000D02*
X124714000Y-121158000D01*
X124714000Y-113786000D02*
X124714000Y-116840000D01*
X126000000Y-61420000D02*
X124000000Y-61420000D01*
X158950000Y-77900000D02*
X161226000Y-75624000D01*
X142450000Y-75530000D02*
X142450000Y-76760000D01*
G04 #@! TA.AperFunction,Conductor*
G36*
X151641654Y-72063799D02*
G01*
X151650004Y-72065000D01*
X151921000Y-72065000D01*
X151988039Y-72084685D01*
X152033794Y-72137489D01*
X152045000Y-72189000D01*
X152045000Y-75300002D01*
X152050140Y-75371873D01*
X152051320Y-75378414D01*
X152049904Y-75378669D01*
X152049901Y-75440942D01*
X152012123Y-75499718D01*
X151948565Y-75528739D01*
X151930926Y-75530000D01*
X151624000Y-75530000D01*
X151556961Y-75510315D01*
X151511206Y-75457511D01*
X151500000Y-75406000D01*
X151500000Y-72186536D01*
X151519685Y-72119497D01*
X151572489Y-72073742D01*
X151641647Y-72063798D01*
X151641654Y-72063799D01*
G37*
G04 #@! TD.AperFunction*
M02*
