G04 #@! TF.GenerationSoftware,KiCad,Pcbnew,9.0.2*
G04 #@! TF.CreationDate,2025-05-27T17:03:47+02:00*
G04 #@! TF.ProjectId,v0.4.3d,76302e34-2e33-4642-9e6b-696361645f70,4d*
G04 #@! TF.SameCoordinates,Original*
G04 #@! TF.FileFunction,Legend,Bot*
G04 #@! TF.FilePolarity,Positive*
%FSLAX46Y46*%
G04 Gerber Fmt 4.6, Leading zero omitted, Abs format (unit mm)*
G04 Created by KiCad (PCBNEW 9.0.2) date 2025-05-27 17:03:47*
%MOMM*%
%LPD*%
G01*
G04 APERTURE LIST*
%ADD10C,0.150000*%
%ADD11C,0.120000*%
G04 APERTURE END LIST*
D10*
X162152000Y-88646000D02*
X162152000Y-90246000D01*
X164152000Y-88392000D02*
X162152000Y-90392000D01*
X162152000Y-88646000D02*
X164152000Y-90646000D01*
X161352000Y-89574000D02*
X162952000Y-89574000D01*
X160152000Y-88392000D02*
X162152000Y-90392000D01*
X160152000Y-90646000D02*
X162152000Y-88646000D01*
X146317731Y-118454819D02*
X145746303Y-118454819D01*
X146032017Y-119454819D02*
X146032017Y-118454819D01*
X145460588Y-119169104D02*
X144984398Y-119169104D01*
X145555826Y-119454819D02*
X145222493Y-118454819D01*
X145222493Y-118454819D02*
X144889160Y-119454819D01*
X143984398Y-119359580D02*
X144032017Y-119407200D01*
X144032017Y-119407200D02*
X144174874Y-119454819D01*
X144174874Y-119454819D02*
X144270112Y-119454819D01*
X144270112Y-119454819D02*
X144412969Y-119407200D01*
X144412969Y-119407200D02*
X144508207Y-119311961D01*
X144508207Y-119311961D02*
X144555826Y-119216723D01*
X144555826Y-119216723D02*
X144603445Y-119026247D01*
X144603445Y-119026247D02*
X144603445Y-118883390D01*
X144603445Y-118883390D02*
X144555826Y-118692914D01*
X144555826Y-118692914D02*
X144508207Y-118597676D01*
X144508207Y-118597676D02*
X144412969Y-118502438D01*
X144412969Y-118502438D02*
X144270112Y-118454819D01*
X144270112Y-118454819D02*
X144174874Y-118454819D01*
X144174874Y-118454819D02*
X144032017Y-118502438D01*
X144032017Y-118502438D02*
X143984398Y-118550057D01*
X143555826Y-119454819D02*
X143555826Y-118454819D01*
X143555826Y-118931009D02*
X142984398Y-118931009D01*
X142984398Y-119454819D02*
X142984398Y-118454819D01*
X142317731Y-118454819D02*
X142127255Y-118454819D01*
X142127255Y-118454819D02*
X142032017Y-118502438D01*
X142032017Y-118502438D02*
X141936779Y-118597676D01*
X141936779Y-118597676D02*
X141889160Y-118788152D01*
X141889160Y-118788152D02*
X141889160Y-119121485D01*
X141889160Y-119121485D02*
X141936779Y-119311961D01*
X141936779Y-119311961D02*
X142032017Y-119407200D01*
X142032017Y-119407200D02*
X142127255Y-119454819D01*
X142127255Y-119454819D02*
X142317731Y-119454819D01*
X142317731Y-119454819D02*
X142412969Y-119407200D01*
X142412969Y-119407200D02*
X142508207Y-119311961D01*
X142508207Y-119311961D02*
X142555826Y-119121485D01*
X142555826Y-119121485D02*
X142555826Y-118788152D01*
X142555826Y-118788152D02*
X142508207Y-118597676D01*
X142508207Y-118597676D02*
X142412969Y-118502438D01*
X142412969Y-118502438D02*
X142317731Y-118454819D01*
X149698684Y-116331009D02*
X150032017Y-116331009D01*
X150032017Y-116854819D02*
X150032017Y-115854819D01*
X150032017Y-115854819D02*
X149555827Y-115854819D01*
X149174874Y-115854819D02*
X149174874Y-116664342D01*
X149174874Y-116664342D02*
X149127255Y-116759580D01*
X149127255Y-116759580D02*
X149079636Y-116807200D01*
X149079636Y-116807200D02*
X148984398Y-116854819D01*
X148984398Y-116854819D02*
X148793922Y-116854819D01*
X148793922Y-116854819D02*
X148698684Y-116807200D01*
X148698684Y-116807200D02*
X148651065Y-116759580D01*
X148651065Y-116759580D02*
X148603446Y-116664342D01*
X148603446Y-116664342D02*
X148603446Y-115854819D01*
X148127255Y-116331009D02*
X147793922Y-116331009D01*
X147651065Y-116854819D02*
X148127255Y-116854819D01*
X148127255Y-116854819D02*
X148127255Y-115854819D01*
X148127255Y-115854819D02*
X147651065Y-115854819D01*
X146746303Y-116854819D02*
X147222493Y-116854819D01*
X147222493Y-116854819D02*
X147222493Y-115854819D01*
X145651064Y-116854819D02*
X145651064Y-115854819D01*
X145651064Y-115854819D02*
X145270112Y-115854819D01*
X145270112Y-115854819D02*
X145174874Y-115902438D01*
X145174874Y-115902438D02*
X145127255Y-115950057D01*
X145127255Y-115950057D02*
X145079636Y-116045295D01*
X145079636Y-116045295D02*
X145079636Y-116188152D01*
X145079636Y-116188152D02*
X145127255Y-116283390D01*
X145127255Y-116283390D02*
X145174874Y-116331009D01*
X145174874Y-116331009D02*
X145270112Y-116378628D01*
X145270112Y-116378628D02*
X145651064Y-116378628D01*
X144651064Y-115854819D02*
X144651064Y-116664342D01*
X144651064Y-116664342D02*
X144603445Y-116759580D01*
X144603445Y-116759580D02*
X144555826Y-116807200D01*
X144555826Y-116807200D02*
X144460588Y-116854819D01*
X144460588Y-116854819D02*
X144270112Y-116854819D01*
X144270112Y-116854819D02*
X144174874Y-116807200D01*
X144174874Y-116807200D02*
X144127255Y-116759580D01*
X144127255Y-116759580D02*
X144079636Y-116664342D01*
X144079636Y-116664342D02*
X144079636Y-115854819D01*
X143603445Y-116854819D02*
X143603445Y-115854819D01*
X143603445Y-115854819D02*
X143270112Y-116569104D01*
X143270112Y-116569104D02*
X142936779Y-115854819D01*
X142936779Y-115854819D02*
X142936779Y-116854819D01*
X142460588Y-116854819D02*
X142460588Y-115854819D01*
X142460588Y-115854819D02*
X142079636Y-115854819D01*
X142079636Y-115854819D02*
X141984398Y-115902438D01*
X141984398Y-115902438D02*
X141936779Y-115950057D01*
X141936779Y-115950057D02*
X141889160Y-116045295D01*
X141889160Y-116045295D02*
X141889160Y-116188152D01*
X141889160Y-116188152D02*
X141936779Y-116283390D01*
X141936779Y-116283390D02*
X141984398Y-116331009D01*
X141984398Y-116331009D02*
X142079636Y-116378628D01*
X142079636Y-116378628D02*
X142460588Y-116378628D01*
X143889160Y-113731009D02*
X144222493Y-113731009D01*
X144222493Y-114254819D02*
X144222493Y-113254819D01*
X144222493Y-113254819D02*
X143746303Y-113254819D01*
X143412969Y-113969104D02*
X142936779Y-113969104D01*
X143508207Y-114254819D02*
X143174874Y-113254819D01*
X143174874Y-113254819D02*
X142841541Y-114254819D01*
X142508207Y-114254819D02*
X142508207Y-113254819D01*
X142508207Y-113254819D02*
X141936779Y-114254819D01*
X141936779Y-114254819D02*
X141936779Y-113254819D01*
X144651065Y-111131009D02*
X144984398Y-111131009D01*
X144984398Y-111654819D02*
X144984398Y-110654819D01*
X144984398Y-110654819D02*
X144508208Y-110654819D01*
X143651065Y-111654819D02*
X144127255Y-111654819D01*
X144127255Y-111654819D02*
X144127255Y-110654819D01*
X143317731Y-111131009D02*
X142984398Y-111131009D01*
X142841541Y-111654819D02*
X143317731Y-111654819D01*
X143317731Y-111654819D02*
X143317731Y-110654819D01*
X143317731Y-110654819D02*
X142841541Y-110654819D01*
X142508207Y-110654819D02*
X141841541Y-111654819D01*
X141841541Y-110654819D02*
X142508207Y-111654819D01*
X146476189Y-94137704D02*
X146209522Y-94518657D01*
X146019046Y-94137704D02*
X146019046Y-94937704D01*
X146019046Y-94937704D02*
X146323808Y-94937704D01*
X146323808Y-94937704D02*
X146399998Y-94899609D01*
X146399998Y-94899609D02*
X146438093Y-94861514D01*
X146438093Y-94861514D02*
X146476189Y-94785323D01*
X146476189Y-94785323D02*
X146476189Y-94671038D01*
X146476189Y-94671038D02*
X146438093Y-94594847D01*
X146438093Y-94594847D02*
X146399998Y-94556752D01*
X146399998Y-94556752D02*
X146323808Y-94518657D01*
X146323808Y-94518657D02*
X146019046Y-94518657D01*
X146819046Y-94556752D02*
X147085712Y-94556752D01*
X147199998Y-94137704D02*
X146819046Y-94137704D01*
X146819046Y-94137704D02*
X146819046Y-94937704D01*
X146819046Y-94937704D02*
X147199998Y-94937704D01*
X147428570Y-94937704D02*
X147695237Y-94137704D01*
X147695237Y-94137704D02*
X147961903Y-94937704D01*
X148990475Y-94937704D02*
X149066665Y-94937704D01*
X149066665Y-94937704D02*
X149142856Y-94899609D01*
X149142856Y-94899609D02*
X149180951Y-94861514D01*
X149180951Y-94861514D02*
X149219046Y-94785323D01*
X149219046Y-94785323D02*
X149257141Y-94632942D01*
X149257141Y-94632942D02*
X149257141Y-94442466D01*
X149257141Y-94442466D02*
X149219046Y-94290085D01*
X149219046Y-94290085D02*
X149180951Y-94213895D01*
X149180951Y-94213895D02*
X149142856Y-94175800D01*
X149142856Y-94175800D02*
X149066665Y-94137704D01*
X149066665Y-94137704D02*
X148990475Y-94137704D01*
X148990475Y-94137704D02*
X148914284Y-94175800D01*
X148914284Y-94175800D02*
X148876189Y-94213895D01*
X148876189Y-94213895D02*
X148838094Y-94290085D01*
X148838094Y-94290085D02*
X148799998Y-94442466D01*
X148799998Y-94442466D02*
X148799998Y-94632942D01*
X148799998Y-94632942D02*
X148838094Y-94785323D01*
X148838094Y-94785323D02*
X148876189Y-94861514D01*
X148876189Y-94861514D02*
X148914284Y-94899609D01*
X148914284Y-94899609D02*
X148990475Y-94937704D01*
X149599999Y-94213895D02*
X149638094Y-94175800D01*
X149638094Y-94175800D02*
X149599999Y-94137704D01*
X149599999Y-94137704D02*
X149561903Y-94175800D01*
X149561903Y-94175800D02*
X149599999Y-94213895D01*
X149599999Y-94213895D02*
X149599999Y-94137704D01*
X150133332Y-94937704D02*
X150209522Y-94937704D01*
X150209522Y-94937704D02*
X150285713Y-94899609D01*
X150285713Y-94899609D02*
X150323808Y-94861514D01*
X150323808Y-94861514D02*
X150361903Y-94785323D01*
X150361903Y-94785323D02*
X150399998Y-94632942D01*
X150399998Y-94632942D02*
X150399998Y-94442466D01*
X150399998Y-94442466D02*
X150361903Y-94290085D01*
X150361903Y-94290085D02*
X150323808Y-94213895D01*
X150323808Y-94213895D02*
X150285713Y-94175800D01*
X150285713Y-94175800D02*
X150209522Y-94137704D01*
X150209522Y-94137704D02*
X150133332Y-94137704D01*
X150133332Y-94137704D02*
X150057141Y-94175800D01*
X150057141Y-94175800D02*
X150019046Y-94213895D01*
X150019046Y-94213895D02*
X149980951Y-94290085D01*
X149980951Y-94290085D02*
X149942855Y-94442466D01*
X149942855Y-94442466D02*
X149942855Y-94632942D01*
X149942855Y-94632942D02*
X149980951Y-94785323D01*
X149980951Y-94785323D02*
X150019046Y-94861514D01*
X150019046Y-94861514D02*
X150057141Y-94899609D01*
X150057141Y-94899609D02*
X150133332Y-94937704D01*
X150742856Y-94213895D02*
X150780951Y-94175800D01*
X150780951Y-94175800D02*
X150742856Y-94137704D01*
X150742856Y-94137704D02*
X150704760Y-94175800D01*
X150704760Y-94175800D02*
X150742856Y-94213895D01*
X150742856Y-94213895D02*
X150742856Y-94137704D01*
X151542855Y-94137704D02*
X151085712Y-94137704D01*
X151314284Y-94137704D02*
X151314284Y-94937704D01*
X151314284Y-94937704D02*
X151238093Y-94823419D01*
X151238093Y-94823419D02*
X151161903Y-94747228D01*
X151161903Y-94747228D02*
X151085712Y-94709133D01*
X152495237Y-94442466D02*
X153104761Y-94442466D01*
X154438094Y-94137704D02*
X154438094Y-94937704D01*
X154438094Y-94175800D02*
X154361903Y-94137704D01*
X154361903Y-94137704D02*
X154209522Y-94137704D01*
X154209522Y-94137704D02*
X154133332Y-94175800D01*
X154133332Y-94175800D02*
X154095237Y-94213895D01*
X154095237Y-94213895D02*
X154057141Y-94290085D01*
X154057141Y-94290085D02*
X154057141Y-94518657D01*
X154057141Y-94518657D02*
X154095237Y-94594847D01*
X154095237Y-94594847D02*
X154133332Y-94632942D01*
X154133332Y-94632942D02*
X154209522Y-94671038D01*
X154209522Y-94671038D02*
X154361903Y-94671038D01*
X154361903Y-94671038D02*
X154438094Y-94632942D01*
X154819047Y-94137704D02*
X154819047Y-94671038D01*
X154819047Y-94937704D02*
X154780951Y-94899609D01*
X154780951Y-94899609D02*
X154819047Y-94861514D01*
X154819047Y-94861514D02*
X154857142Y-94899609D01*
X154857142Y-94899609D02*
X154819047Y-94937704D01*
X154819047Y-94937704D02*
X154819047Y-94861514D01*
X155542856Y-94137704D02*
X155542856Y-94556752D01*
X155542856Y-94556752D02*
X155504761Y-94632942D01*
X155504761Y-94632942D02*
X155428570Y-94671038D01*
X155428570Y-94671038D02*
X155276189Y-94671038D01*
X155276189Y-94671038D02*
X155199999Y-94632942D01*
X155542856Y-94175800D02*
X155466665Y-94137704D01*
X155466665Y-94137704D02*
X155276189Y-94137704D01*
X155276189Y-94137704D02*
X155199999Y-94175800D01*
X155199999Y-94175800D02*
X155161903Y-94251990D01*
X155161903Y-94251990D02*
X155161903Y-94328180D01*
X155161903Y-94328180D02*
X155199999Y-94404371D01*
X155199999Y-94404371D02*
X155276189Y-94442466D01*
X155276189Y-94442466D02*
X155466665Y-94442466D01*
X155466665Y-94442466D02*
X155542856Y-94480561D01*
X155923809Y-94137704D02*
X155923809Y-94671038D01*
X155923809Y-94518657D02*
X155961904Y-94594847D01*
X155961904Y-94594847D02*
X155999999Y-94632942D01*
X155999999Y-94632942D02*
X156076190Y-94671038D01*
X156076190Y-94671038D02*
X156152380Y-94671038D01*
X156419047Y-94137704D02*
X156419047Y-94671038D01*
X156419047Y-94594847D02*
X156457142Y-94632942D01*
X156457142Y-94632942D02*
X156533332Y-94671038D01*
X156533332Y-94671038D02*
X156647618Y-94671038D01*
X156647618Y-94671038D02*
X156723809Y-94632942D01*
X156723809Y-94632942D02*
X156761904Y-94556752D01*
X156761904Y-94556752D02*
X156761904Y-94137704D01*
X156761904Y-94556752D02*
X156799999Y-94632942D01*
X156799999Y-94632942D02*
X156876190Y-94671038D01*
X156876190Y-94671038D02*
X156990475Y-94671038D01*
X156990475Y-94671038D02*
X157066666Y-94632942D01*
X157066666Y-94632942D02*
X157104761Y-94556752D01*
X157104761Y-94556752D02*
X157104761Y-94137704D01*
X157828571Y-94671038D02*
X157828571Y-94137704D01*
X157485714Y-94671038D02*
X157485714Y-94251990D01*
X157485714Y-94251990D02*
X157523809Y-94175800D01*
X157523809Y-94175800D02*
X157599999Y-94137704D01*
X157599999Y-94137704D02*
X157714285Y-94137704D01*
X157714285Y-94137704D02*
X157790476Y-94175800D01*
X157790476Y-94175800D02*
X157828571Y-94213895D01*
X158209524Y-94137704D02*
X158209524Y-94671038D01*
X158209524Y-94937704D02*
X158171428Y-94899609D01*
X158171428Y-94899609D02*
X158209524Y-94861514D01*
X158209524Y-94861514D02*
X158247619Y-94899609D01*
X158247619Y-94899609D02*
X158209524Y-94937704D01*
X158209524Y-94937704D02*
X158209524Y-94861514D01*
X158933333Y-94137704D02*
X158933333Y-94937704D01*
X158933333Y-94175800D02*
X158857142Y-94137704D01*
X158857142Y-94137704D02*
X158704761Y-94137704D01*
X158704761Y-94137704D02*
X158628571Y-94175800D01*
X158628571Y-94175800D02*
X158590476Y-94213895D01*
X158590476Y-94213895D02*
X158552380Y-94290085D01*
X158552380Y-94290085D02*
X158552380Y-94518657D01*
X158552380Y-94518657D02*
X158590476Y-94594847D01*
X158590476Y-94594847D02*
X158628571Y-94632942D01*
X158628571Y-94632942D02*
X158704761Y-94671038D01*
X158704761Y-94671038D02*
X158857142Y-94671038D01*
X158857142Y-94671038D02*
X158933333Y-94632942D01*
X159923810Y-94137704D02*
X159923810Y-94937704D01*
X160000000Y-94442466D02*
X160228572Y-94137704D01*
X160228572Y-94671038D02*
X159923810Y-94366276D01*
X160876191Y-94175800D02*
X160800000Y-94137704D01*
X160800000Y-94137704D02*
X160647619Y-94137704D01*
X160647619Y-94137704D02*
X160571429Y-94175800D01*
X160571429Y-94175800D02*
X160533333Y-94251990D01*
X160533333Y-94251990D02*
X160533333Y-94556752D01*
X160533333Y-94556752D02*
X160571429Y-94632942D01*
X160571429Y-94632942D02*
X160647619Y-94671038D01*
X160647619Y-94671038D02*
X160800000Y-94671038D01*
X160800000Y-94671038D02*
X160876191Y-94632942D01*
X160876191Y-94632942D02*
X160914286Y-94556752D01*
X160914286Y-94556752D02*
X160914286Y-94480561D01*
X160914286Y-94480561D02*
X160533333Y-94404371D01*
X161371428Y-94137704D02*
X161295238Y-94175800D01*
X161295238Y-94175800D02*
X161257143Y-94251990D01*
X161257143Y-94251990D02*
X161257143Y-94937704D01*
X161790476Y-94137704D02*
X161714286Y-94175800D01*
X161714286Y-94175800D02*
X161676191Y-94251990D01*
X161676191Y-94251990D02*
X161676191Y-94937704D01*
X162019048Y-94671038D02*
X162209524Y-94137704D01*
X162400001Y-94671038D02*
X162209524Y-94137704D01*
X162209524Y-94137704D02*
X162133334Y-93947228D01*
X162133334Y-93947228D02*
X162095239Y-93909133D01*
X162095239Y-93909133D02*
X162019048Y-93871038D01*
X163276191Y-94861514D02*
X163314287Y-94899609D01*
X163314287Y-94899609D02*
X163390477Y-94937704D01*
X163390477Y-94937704D02*
X163580953Y-94937704D01*
X163580953Y-94937704D02*
X163657144Y-94899609D01*
X163657144Y-94899609D02*
X163695239Y-94861514D01*
X163695239Y-94861514D02*
X163733334Y-94785323D01*
X163733334Y-94785323D02*
X163733334Y-94709133D01*
X163733334Y-94709133D02*
X163695239Y-94594847D01*
X163695239Y-94594847D02*
X163238096Y-94137704D01*
X163238096Y-94137704D02*
X163733334Y-94137704D01*
X164228573Y-94937704D02*
X164304763Y-94937704D01*
X164304763Y-94937704D02*
X164380954Y-94899609D01*
X164380954Y-94899609D02*
X164419049Y-94861514D01*
X164419049Y-94861514D02*
X164457144Y-94785323D01*
X164457144Y-94785323D02*
X164495239Y-94632942D01*
X164495239Y-94632942D02*
X164495239Y-94442466D01*
X164495239Y-94442466D02*
X164457144Y-94290085D01*
X164457144Y-94290085D02*
X164419049Y-94213895D01*
X164419049Y-94213895D02*
X164380954Y-94175800D01*
X164380954Y-94175800D02*
X164304763Y-94137704D01*
X164304763Y-94137704D02*
X164228573Y-94137704D01*
X164228573Y-94137704D02*
X164152382Y-94175800D01*
X164152382Y-94175800D02*
X164114287Y-94213895D01*
X164114287Y-94213895D02*
X164076192Y-94290085D01*
X164076192Y-94290085D02*
X164038096Y-94442466D01*
X164038096Y-94442466D02*
X164038096Y-94632942D01*
X164038096Y-94632942D02*
X164076192Y-94785323D01*
X164076192Y-94785323D02*
X164114287Y-94861514D01*
X164114287Y-94861514D02*
X164152382Y-94899609D01*
X164152382Y-94899609D02*
X164228573Y-94937704D01*
X164800001Y-94861514D02*
X164838097Y-94899609D01*
X164838097Y-94899609D02*
X164914287Y-94937704D01*
X164914287Y-94937704D02*
X165104763Y-94937704D01*
X165104763Y-94937704D02*
X165180954Y-94899609D01*
X165180954Y-94899609D02*
X165219049Y-94861514D01*
X165219049Y-94861514D02*
X165257144Y-94785323D01*
X165257144Y-94785323D02*
X165257144Y-94709133D01*
X165257144Y-94709133D02*
X165219049Y-94594847D01*
X165219049Y-94594847D02*
X164761906Y-94137704D01*
X164761906Y-94137704D02*
X165257144Y-94137704D01*
X165980954Y-94937704D02*
X165600002Y-94937704D01*
X165600002Y-94937704D02*
X165561906Y-94556752D01*
X165561906Y-94556752D02*
X165600002Y-94594847D01*
X165600002Y-94594847D02*
X165676192Y-94632942D01*
X165676192Y-94632942D02*
X165866668Y-94632942D01*
X165866668Y-94632942D02*
X165942859Y-94594847D01*
X165942859Y-94594847D02*
X165980954Y-94556752D01*
X165980954Y-94556752D02*
X166019049Y-94480561D01*
X166019049Y-94480561D02*
X166019049Y-94290085D01*
X166019049Y-94290085D02*
X165980954Y-94213895D01*
X165980954Y-94213895D02*
X165942859Y-94175800D01*
X165942859Y-94175800D02*
X165866668Y-94137704D01*
X165866668Y-94137704D02*
X165676192Y-94137704D01*
X165676192Y-94137704D02*
X165600002Y-94175800D01*
X165600002Y-94175800D02*
X165561906Y-94213895D01*
X145136950Y-91291800D02*
X145365522Y-91215609D01*
X145365522Y-91215609D02*
X145746474Y-91215609D01*
X145746474Y-91215609D02*
X145898855Y-91291800D01*
X145898855Y-91291800D02*
X145975046Y-91367990D01*
X145975046Y-91367990D02*
X146051236Y-91520371D01*
X146051236Y-91520371D02*
X146051236Y-91672752D01*
X146051236Y-91672752D02*
X145975046Y-91825133D01*
X145975046Y-91825133D02*
X145898855Y-91901323D01*
X145898855Y-91901323D02*
X145746474Y-91977514D01*
X145746474Y-91977514D02*
X145441712Y-92053704D01*
X145441712Y-92053704D02*
X145289331Y-92129895D01*
X145289331Y-92129895D02*
X145213141Y-92206085D01*
X145213141Y-92206085D02*
X145136950Y-92358466D01*
X145136950Y-92358466D02*
X145136950Y-92510847D01*
X145136950Y-92510847D02*
X145213141Y-92663228D01*
X145213141Y-92663228D02*
X145289331Y-92739419D01*
X145289331Y-92739419D02*
X145441712Y-92815609D01*
X145441712Y-92815609D02*
X145822665Y-92815609D01*
X145822665Y-92815609D02*
X146051236Y-92739419D01*
X146736951Y-92282276D02*
X146736951Y-90682276D01*
X146736951Y-92206085D02*
X146889332Y-92282276D01*
X146889332Y-92282276D02*
X147194094Y-92282276D01*
X147194094Y-92282276D02*
X147346475Y-92206085D01*
X147346475Y-92206085D02*
X147422665Y-92129895D01*
X147422665Y-92129895D02*
X147498856Y-91977514D01*
X147498856Y-91977514D02*
X147498856Y-91520371D01*
X147498856Y-91520371D02*
X147422665Y-91367990D01*
X147422665Y-91367990D02*
X147346475Y-91291800D01*
X147346475Y-91291800D02*
X147194094Y-91215609D01*
X147194094Y-91215609D02*
X146889332Y-91215609D01*
X146889332Y-91215609D02*
X146736951Y-91291800D01*
X148794094Y-91291800D02*
X148641713Y-91215609D01*
X148641713Y-91215609D02*
X148336951Y-91215609D01*
X148336951Y-91215609D02*
X148184570Y-91291800D01*
X148184570Y-91291800D02*
X148108379Y-91444180D01*
X148108379Y-91444180D02*
X148108379Y-92053704D01*
X148108379Y-92053704D02*
X148184570Y-92206085D01*
X148184570Y-92206085D02*
X148336951Y-92282276D01*
X148336951Y-92282276D02*
X148641713Y-92282276D01*
X148641713Y-92282276D02*
X148794094Y-92206085D01*
X148794094Y-92206085D02*
X148870284Y-92053704D01*
X148870284Y-92053704D02*
X148870284Y-91901323D01*
X148870284Y-91901323D02*
X148108379Y-91748942D01*
X150165523Y-91291800D02*
X150013142Y-91215609D01*
X150013142Y-91215609D02*
X149708380Y-91215609D01*
X149708380Y-91215609D02*
X149555999Y-91291800D01*
X149555999Y-91291800D02*
X149479808Y-91444180D01*
X149479808Y-91444180D02*
X149479808Y-92053704D01*
X149479808Y-92053704D02*
X149555999Y-92206085D01*
X149555999Y-92206085D02*
X149708380Y-92282276D01*
X149708380Y-92282276D02*
X150013142Y-92282276D01*
X150013142Y-92282276D02*
X150165523Y-92206085D01*
X150165523Y-92206085D02*
X150241713Y-92053704D01*
X150241713Y-92053704D02*
X150241713Y-91901323D01*
X150241713Y-91901323D02*
X149479808Y-91748942D01*
X151613142Y-91215609D02*
X151613142Y-92815609D01*
X151613142Y-91291800D02*
X151460761Y-91215609D01*
X151460761Y-91215609D02*
X151155999Y-91215609D01*
X151155999Y-91215609D02*
X151003618Y-91291800D01*
X151003618Y-91291800D02*
X150927428Y-91367990D01*
X150927428Y-91367990D02*
X150851237Y-91520371D01*
X150851237Y-91520371D02*
X150851237Y-91977514D01*
X150851237Y-91977514D02*
X150927428Y-92129895D01*
X150927428Y-92129895D02*
X151003618Y-92206085D01*
X151003618Y-92206085D02*
X151155999Y-92282276D01*
X151155999Y-92282276D02*
X151460761Y-92282276D01*
X151460761Y-92282276D02*
X151613142Y-92206085D01*
X153060761Y-92282276D02*
X153060761Y-91215609D01*
X152375047Y-92282276D02*
X152375047Y-91444180D01*
X152375047Y-91444180D02*
X152451237Y-91291800D01*
X152451237Y-91291800D02*
X152603618Y-91215609D01*
X152603618Y-91215609D02*
X152832190Y-91215609D01*
X152832190Y-91215609D02*
X152984571Y-91291800D01*
X152984571Y-91291800D02*
X153060761Y-91367990D01*
X153822666Y-91215609D02*
X153822666Y-92282276D01*
X153822666Y-92815609D02*
X153746475Y-92739419D01*
X153746475Y-92739419D02*
X153822666Y-92663228D01*
X153822666Y-92663228D02*
X153898856Y-92739419D01*
X153898856Y-92739419D02*
X153822666Y-92815609D01*
X153822666Y-92815609D02*
X153822666Y-92663228D01*
X154584571Y-92282276D02*
X154584571Y-91215609D01*
X154584571Y-92129895D02*
X154660761Y-92206085D01*
X154660761Y-92206085D02*
X154813142Y-92282276D01*
X154813142Y-92282276D02*
X155041714Y-92282276D01*
X155041714Y-92282276D02*
X155194095Y-92206085D01*
X155194095Y-92206085D02*
X155270285Y-92053704D01*
X155270285Y-92053704D02*
X155270285Y-91215609D01*
X156260761Y-91215609D02*
X156108380Y-91291800D01*
X156108380Y-91291800D02*
X156032190Y-91367990D01*
X156032190Y-91367990D02*
X155955999Y-91520371D01*
X155955999Y-91520371D02*
X155955999Y-91977514D01*
X155955999Y-91977514D02*
X156032190Y-92129895D01*
X156032190Y-92129895D02*
X156108380Y-92206085D01*
X156108380Y-92206085D02*
X156260761Y-92282276D01*
X156260761Y-92282276D02*
X156489333Y-92282276D01*
X156489333Y-92282276D02*
X156641714Y-92206085D01*
X156641714Y-92206085D02*
X156717904Y-92129895D01*
X156717904Y-92129895D02*
X156794095Y-91977514D01*
X156794095Y-91977514D02*
X156794095Y-91520371D01*
X156794095Y-91520371D02*
X156717904Y-91367990D01*
X156717904Y-91367990D02*
X156641714Y-91291800D01*
X156641714Y-91291800D02*
X156489333Y-91215609D01*
X156489333Y-91215609D02*
X156260761Y-91215609D01*
X158546476Y-92282276D02*
X158927428Y-91215609D01*
X158927428Y-91215609D02*
X159308381Y-92282276D01*
X160222667Y-92815609D02*
X160375048Y-92815609D01*
X160375048Y-92815609D02*
X160527429Y-92739419D01*
X160527429Y-92739419D02*
X160603619Y-92663228D01*
X160603619Y-92663228D02*
X160679810Y-92510847D01*
X160679810Y-92510847D02*
X160756000Y-92206085D01*
X160756000Y-92206085D02*
X160756000Y-91825133D01*
X160756000Y-91825133D02*
X160679810Y-91520371D01*
X160679810Y-91520371D02*
X160603619Y-91367990D01*
X160603619Y-91367990D02*
X160527429Y-91291800D01*
X160527429Y-91291800D02*
X160375048Y-91215609D01*
X160375048Y-91215609D02*
X160222667Y-91215609D01*
X160222667Y-91215609D02*
X160070286Y-91291800D01*
X160070286Y-91291800D02*
X159994095Y-91367990D01*
X159994095Y-91367990D02*
X159917905Y-91520371D01*
X159917905Y-91520371D02*
X159841714Y-91825133D01*
X159841714Y-91825133D02*
X159841714Y-92206085D01*
X159841714Y-92206085D02*
X159917905Y-92510847D01*
X159917905Y-92510847D02*
X159994095Y-92663228D01*
X159994095Y-92663228D02*
X160070286Y-92739419D01*
X160070286Y-92739419D02*
X160222667Y-92815609D01*
X161441715Y-91367990D02*
X161517905Y-91291800D01*
X161517905Y-91291800D02*
X161441715Y-91215609D01*
X161441715Y-91215609D02*
X161365524Y-91291800D01*
X161365524Y-91291800D02*
X161441715Y-91367990D01*
X161441715Y-91367990D02*
X161441715Y-91215609D01*
X162889334Y-92282276D02*
X162889334Y-91215609D01*
X162508382Y-92891800D02*
X162127429Y-91748942D01*
X162127429Y-91748942D02*
X163117906Y-91748942D01*
X163727430Y-91367990D02*
X163803620Y-91291800D01*
X163803620Y-91291800D02*
X163727430Y-91215609D01*
X163727430Y-91215609D02*
X163651239Y-91291800D01*
X163651239Y-91291800D02*
X163727430Y-91367990D01*
X163727430Y-91367990D02*
X163727430Y-91215609D01*
X164336954Y-92815609D02*
X165327430Y-92815609D01*
X165327430Y-92815609D02*
X164794097Y-92206085D01*
X164794097Y-92206085D02*
X165022668Y-92206085D01*
X165022668Y-92206085D02*
X165175049Y-92129895D01*
X165175049Y-92129895D02*
X165251240Y-92053704D01*
X165251240Y-92053704D02*
X165327430Y-91901323D01*
X165327430Y-91901323D02*
X165327430Y-91520371D01*
X165327430Y-91520371D02*
X165251240Y-91367990D01*
X165251240Y-91367990D02*
X165175049Y-91291800D01*
X165175049Y-91291800D02*
X165022668Y-91215609D01*
X165022668Y-91215609D02*
X164565525Y-91215609D01*
X164565525Y-91215609D02*
X164413144Y-91291800D01*
X164413144Y-91291800D02*
X164336954Y-91367990D01*
X166698859Y-91215609D02*
X166698859Y-92815609D01*
X166698859Y-91291800D02*
X166546478Y-91215609D01*
X166546478Y-91215609D02*
X166241716Y-91215609D01*
X166241716Y-91215609D02*
X166089335Y-91291800D01*
X166089335Y-91291800D02*
X166013145Y-91367990D01*
X166013145Y-91367990D02*
X165936954Y-91520371D01*
X165936954Y-91520371D02*
X165936954Y-91977514D01*
X165936954Y-91977514D02*
X166013145Y-92129895D01*
X166013145Y-92129895D02*
X166089335Y-92206085D01*
X166089335Y-92206085D02*
X166241716Y-92282276D01*
X166241716Y-92282276D02*
X166546478Y-92282276D01*
X166546478Y-92282276D02*
X166698859Y-92206085D01*
X144725237Y-89969085D02*
X144629998Y-90016704D01*
X144629998Y-90016704D02*
X144439522Y-90016704D01*
X144439522Y-90016704D02*
X144344284Y-89969085D01*
X144344284Y-89969085D02*
X144249046Y-89873847D01*
X144249046Y-89873847D02*
X144201427Y-89778609D01*
X144201427Y-89778609D02*
X144201427Y-89588133D01*
X144201427Y-89588133D02*
X144249046Y-89492895D01*
X144249046Y-89492895D02*
X144344284Y-89397657D01*
X144344284Y-89397657D02*
X144439522Y-89350038D01*
X144439522Y-89350038D02*
X144629998Y-89350038D01*
X144629998Y-89350038D02*
X144725237Y-89397657D01*
X144534760Y-90350038D02*
X144296665Y-90302419D01*
X144296665Y-90302419D02*
X144058570Y-90159561D01*
X144058570Y-90159561D02*
X143915713Y-89921466D01*
X143915713Y-89921466D02*
X143868094Y-89683371D01*
X143868094Y-89683371D02*
X143915713Y-89445276D01*
X143915713Y-89445276D02*
X144058570Y-89207180D01*
X144058570Y-89207180D02*
X144296665Y-89064323D01*
X144296665Y-89064323D02*
X144534760Y-89016704D01*
X144534760Y-89016704D02*
X144772856Y-89064323D01*
X144772856Y-89064323D02*
X145010951Y-89207180D01*
X145010951Y-89207180D02*
X145153808Y-89445276D01*
X145153808Y-89445276D02*
X145201427Y-89683371D01*
X145201427Y-89683371D02*
X145153808Y-89921466D01*
X145153808Y-89921466D02*
X145010951Y-90159561D01*
X145010951Y-90159561D02*
X144772856Y-90302419D01*
X144772856Y-90302419D02*
X144534760Y-90350038D01*
X146677618Y-90207180D02*
X146677618Y-89492895D01*
X146677618Y-89492895D02*
X146629999Y-89350038D01*
X146629999Y-89350038D02*
X146534761Y-89254800D01*
X146534761Y-89254800D02*
X146391904Y-89207180D01*
X146391904Y-89207180D02*
X146296666Y-89207180D01*
X147296666Y-89207180D02*
X147201428Y-89254800D01*
X147201428Y-89254800D02*
X147153809Y-89302419D01*
X147153809Y-89302419D02*
X147106190Y-89397657D01*
X147106190Y-89397657D02*
X147106190Y-89683371D01*
X147106190Y-89683371D02*
X147153809Y-89778609D01*
X147153809Y-89778609D02*
X147201428Y-89826228D01*
X147201428Y-89826228D02*
X147296666Y-89873847D01*
X147296666Y-89873847D02*
X147439523Y-89873847D01*
X147439523Y-89873847D02*
X147534761Y-89826228D01*
X147534761Y-89826228D02*
X147582380Y-89778609D01*
X147582380Y-89778609D02*
X147629999Y-89683371D01*
X147629999Y-89683371D02*
X147629999Y-89397657D01*
X147629999Y-89397657D02*
X147582380Y-89302419D01*
X147582380Y-89302419D02*
X147534761Y-89254800D01*
X147534761Y-89254800D02*
X147439523Y-89207180D01*
X147439523Y-89207180D02*
X147296666Y-89207180D01*
X148010952Y-89254800D02*
X148106190Y-89207180D01*
X148106190Y-89207180D02*
X148296666Y-89207180D01*
X148296666Y-89207180D02*
X148391904Y-89254800D01*
X148391904Y-89254800D02*
X148439523Y-89350038D01*
X148439523Y-89350038D02*
X148439523Y-89397657D01*
X148439523Y-89397657D02*
X148391904Y-89492895D01*
X148391904Y-89492895D02*
X148296666Y-89540514D01*
X148296666Y-89540514D02*
X148153809Y-89540514D01*
X148153809Y-89540514D02*
X148058571Y-89588133D01*
X148058571Y-89588133D02*
X148010952Y-89683371D01*
X148010952Y-89683371D02*
X148010952Y-89730990D01*
X148010952Y-89730990D02*
X148058571Y-89826228D01*
X148058571Y-89826228D02*
X148153809Y-89873847D01*
X148153809Y-89873847D02*
X148296666Y-89873847D01*
X148296666Y-89873847D02*
X148391904Y-89826228D01*
X148868095Y-89207180D02*
X148868095Y-90207180D01*
X149296666Y-89207180D02*
X149296666Y-89730990D01*
X149296666Y-89730990D02*
X149249047Y-89826228D01*
X149249047Y-89826228D02*
X149153809Y-89873847D01*
X149153809Y-89873847D02*
X149010952Y-89873847D01*
X149010952Y-89873847D02*
X148915714Y-89826228D01*
X148915714Y-89826228D02*
X148868095Y-89778609D01*
X150487143Y-89254800D02*
X150630000Y-89207180D01*
X150630000Y-89207180D02*
X150868095Y-89207180D01*
X150868095Y-89207180D02*
X150963333Y-89254800D01*
X150963333Y-89254800D02*
X151010952Y-89302419D01*
X151010952Y-89302419D02*
X151058571Y-89397657D01*
X151058571Y-89397657D02*
X151058571Y-89492895D01*
X151058571Y-89492895D02*
X151010952Y-89588133D01*
X151010952Y-89588133D02*
X150963333Y-89635752D01*
X150963333Y-89635752D02*
X150868095Y-89683371D01*
X150868095Y-89683371D02*
X150677619Y-89730990D01*
X150677619Y-89730990D02*
X150582381Y-89778609D01*
X150582381Y-89778609D02*
X150534762Y-89826228D01*
X150534762Y-89826228D02*
X150487143Y-89921466D01*
X150487143Y-89921466D02*
X150487143Y-90016704D01*
X150487143Y-90016704D02*
X150534762Y-90111942D01*
X150534762Y-90111942D02*
X150582381Y-90159561D01*
X150582381Y-90159561D02*
X150677619Y-90207180D01*
X150677619Y-90207180D02*
X150915714Y-90207180D01*
X150915714Y-90207180D02*
X151058571Y-90159561D01*
X151344286Y-89873847D02*
X151725238Y-89873847D01*
X151487143Y-90207180D02*
X151487143Y-89350038D01*
X151487143Y-89350038D02*
X151534762Y-89254800D01*
X151534762Y-89254800D02*
X151630000Y-89207180D01*
X151630000Y-89207180D02*
X151725238Y-89207180D01*
X152439524Y-89254800D02*
X152344286Y-89207180D01*
X152344286Y-89207180D02*
X152153810Y-89207180D01*
X152153810Y-89207180D02*
X152058572Y-89254800D01*
X152058572Y-89254800D02*
X152010953Y-89350038D01*
X152010953Y-89350038D02*
X152010953Y-89730990D01*
X152010953Y-89730990D02*
X152058572Y-89826228D01*
X152058572Y-89826228D02*
X152153810Y-89873847D01*
X152153810Y-89873847D02*
X152344286Y-89873847D01*
X152344286Y-89873847D02*
X152439524Y-89826228D01*
X152439524Y-89826228D02*
X152487143Y-89730990D01*
X152487143Y-89730990D02*
X152487143Y-89635752D01*
X152487143Y-89635752D02*
X152010953Y-89540514D01*
X152820477Y-89873847D02*
X153010953Y-89207180D01*
X153010953Y-89207180D02*
X153201429Y-89683371D01*
X153201429Y-89683371D02*
X153391905Y-89207180D01*
X153391905Y-89207180D02*
X153582381Y-89873847D01*
X154391905Y-89207180D02*
X154391905Y-89730990D01*
X154391905Y-89730990D02*
X154344286Y-89826228D01*
X154344286Y-89826228D02*
X154249048Y-89873847D01*
X154249048Y-89873847D02*
X154058572Y-89873847D01*
X154058572Y-89873847D02*
X153963334Y-89826228D01*
X154391905Y-89254800D02*
X154296667Y-89207180D01*
X154296667Y-89207180D02*
X154058572Y-89207180D01*
X154058572Y-89207180D02*
X153963334Y-89254800D01*
X153963334Y-89254800D02*
X153915715Y-89350038D01*
X153915715Y-89350038D02*
X153915715Y-89445276D01*
X153915715Y-89445276D02*
X153963334Y-89540514D01*
X153963334Y-89540514D02*
X154058572Y-89588133D01*
X154058572Y-89588133D02*
X154296667Y-89588133D01*
X154296667Y-89588133D02*
X154391905Y-89635752D01*
X154868096Y-89207180D02*
X154868096Y-89873847D01*
X154868096Y-89683371D02*
X154915715Y-89778609D01*
X154915715Y-89778609D02*
X154963334Y-89826228D01*
X154963334Y-89826228D02*
X155058572Y-89873847D01*
X155058572Y-89873847D02*
X155153810Y-89873847D01*
X155344287Y-89873847D02*
X155725239Y-89873847D01*
X155487144Y-90207180D02*
X155487144Y-89350038D01*
X155487144Y-89350038D02*
X155534763Y-89254800D01*
X155534763Y-89254800D02*
X155630001Y-89207180D01*
X155630001Y-89207180D02*
X155725239Y-89207180D01*
X157630002Y-89207180D02*
X157582383Y-89207180D01*
X157582383Y-89207180D02*
X157487144Y-89254800D01*
X157487144Y-89254800D02*
X157344287Y-89397657D01*
X157344287Y-89397657D02*
X157106192Y-89683371D01*
X157106192Y-89683371D02*
X157010954Y-89826228D01*
X157010954Y-89826228D02*
X156963335Y-89969085D01*
X156963335Y-89969085D02*
X156963335Y-90064323D01*
X156963335Y-90064323D02*
X157010954Y-90159561D01*
X157010954Y-90159561D02*
X157106192Y-90207180D01*
X157106192Y-90207180D02*
X157153811Y-90207180D01*
X157153811Y-90207180D02*
X157249049Y-90159561D01*
X157249049Y-90159561D02*
X157296668Y-90064323D01*
X157296668Y-90064323D02*
X157296668Y-90016704D01*
X157296668Y-90016704D02*
X157249049Y-89921466D01*
X157249049Y-89921466D02*
X157201430Y-89873847D01*
X157201430Y-89873847D02*
X156915716Y-89683371D01*
X156915716Y-89683371D02*
X156868097Y-89635752D01*
X156868097Y-89635752D02*
X156820478Y-89540514D01*
X156820478Y-89540514D02*
X156820478Y-89397657D01*
X156820478Y-89397657D02*
X156868097Y-89302419D01*
X156868097Y-89302419D02*
X156915716Y-89254800D01*
X156915716Y-89254800D02*
X157010954Y-89207180D01*
X157010954Y-89207180D02*
X157153811Y-89207180D01*
X157153811Y-89207180D02*
X157249049Y-89254800D01*
X157249049Y-89254800D02*
X157296668Y-89302419D01*
X157296668Y-89302419D02*
X157439525Y-89492895D01*
X157439525Y-89492895D02*
X157487144Y-89635752D01*
X157487144Y-89635752D02*
X157487144Y-89730990D01*
X146793922Y-122054819D02*
X147270112Y-122054819D01*
X147270112Y-122054819D02*
X147270112Y-121054819D01*
X146508207Y-121769104D02*
X146032017Y-121769104D01*
X146603445Y-122054819D02*
X146270112Y-121054819D01*
X146270112Y-121054819D02*
X145936779Y-122054819D01*
X145603445Y-121054819D02*
X145603445Y-121864342D01*
X145603445Y-121864342D02*
X145555826Y-121959580D01*
X145555826Y-121959580D02*
X145508207Y-122007200D01*
X145508207Y-122007200D02*
X145412969Y-122054819D01*
X145412969Y-122054819D02*
X145222493Y-122054819D01*
X145222493Y-122054819D02*
X145127255Y-122007200D01*
X145127255Y-122007200D02*
X145079636Y-121959580D01*
X145079636Y-121959580D02*
X145032017Y-121864342D01*
X145032017Y-121864342D02*
X145032017Y-121054819D01*
X144555826Y-122054819D02*
X144555826Y-121054819D01*
X144555826Y-121054819D02*
X143984398Y-122054819D01*
X143984398Y-122054819D02*
X143984398Y-121054819D01*
X142936779Y-121959580D02*
X142984398Y-122007200D01*
X142984398Y-122007200D02*
X143127255Y-122054819D01*
X143127255Y-122054819D02*
X143222493Y-122054819D01*
X143222493Y-122054819D02*
X143365350Y-122007200D01*
X143365350Y-122007200D02*
X143460588Y-121911961D01*
X143460588Y-121911961D02*
X143508207Y-121816723D01*
X143508207Y-121816723D02*
X143555826Y-121626247D01*
X143555826Y-121626247D02*
X143555826Y-121483390D01*
X143555826Y-121483390D02*
X143508207Y-121292914D01*
X143508207Y-121292914D02*
X143460588Y-121197676D01*
X143460588Y-121197676D02*
X143365350Y-121102438D01*
X143365350Y-121102438D02*
X143222493Y-121054819D01*
X143222493Y-121054819D02*
X143127255Y-121054819D01*
X143127255Y-121054819D02*
X142984398Y-121102438D01*
X142984398Y-121102438D02*
X142936779Y-121150057D01*
X142508207Y-122054819D02*
X142508207Y-121054819D01*
X142508207Y-121531009D02*
X141936779Y-121531009D01*
X141936779Y-122054819D02*
X141936779Y-121054819D01*
X137733333Y-115854819D02*
X137733333Y-116569104D01*
X137733333Y-116569104D02*
X137780952Y-116711961D01*
X137780952Y-116711961D02*
X137876190Y-116807200D01*
X137876190Y-116807200D02*
X138019047Y-116854819D01*
X138019047Y-116854819D02*
X138114285Y-116854819D01*
X137257142Y-116854819D02*
X137257142Y-115854819D01*
X137257142Y-115854819D02*
X136876190Y-115854819D01*
X136876190Y-115854819D02*
X136780952Y-115902438D01*
X136780952Y-115902438D02*
X136733333Y-115950057D01*
X136733333Y-115950057D02*
X136685714Y-116045295D01*
X136685714Y-116045295D02*
X136685714Y-116188152D01*
X136685714Y-116188152D02*
X136733333Y-116283390D01*
X136733333Y-116283390D02*
X136780952Y-116331009D01*
X136780952Y-116331009D02*
X136876190Y-116378628D01*
X136876190Y-116378628D02*
X137257142Y-116378628D01*
X136114285Y-116283390D02*
X136209523Y-116235771D01*
X136209523Y-116235771D02*
X136257142Y-116188152D01*
X136257142Y-116188152D02*
X136304761Y-116092914D01*
X136304761Y-116092914D02*
X136304761Y-116045295D01*
X136304761Y-116045295D02*
X136257142Y-115950057D01*
X136257142Y-115950057D02*
X136209523Y-115902438D01*
X136209523Y-115902438D02*
X136114285Y-115854819D01*
X136114285Y-115854819D02*
X135923809Y-115854819D01*
X135923809Y-115854819D02*
X135828571Y-115902438D01*
X135828571Y-115902438D02*
X135780952Y-115950057D01*
X135780952Y-115950057D02*
X135733333Y-116045295D01*
X135733333Y-116045295D02*
X135733333Y-116092914D01*
X135733333Y-116092914D02*
X135780952Y-116188152D01*
X135780952Y-116188152D02*
X135828571Y-116235771D01*
X135828571Y-116235771D02*
X135923809Y-116283390D01*
X135923809Y-116283390D02*
X136114285Y-116283390D01*
X136114285Y-116283390D02*
X136209523Y-116331009D01*
X136209523Y-116331009D02*
X136257142Y-116378628D01*
X136257142Y-116378628D02*
X136304761Y-116473866D01*
X136304761Y-116473866D02*
X136304761Y-116664342D01*
X136304761Y-116664342D02*
X136257142Y-116759580D01*
X136257142Y-116759580D02*
X136209523Y-116807200D01*
X136209523Y-116807200D02*
X136114285Y-116854819D01*
X136114285Y-116854819D02*
X135923809Y-116854819D01*
X135923809Y-116854819D02*
X135828571Y-116807200D01*
X135828571Y-116807200D02*
X135780952Y-116759580D01*
X135780952Y-116759580D02*
X135733333Y-116664342D01*
X135733333Y-116664342D02*
X135733333Y-116473866D01*
X135733333Y-116473866D02*
X135780952Y-116378628D01*
X135780952Y-116378628D02*
X135828571Y-116331009D01*
X135828571Y-116331009D02*
X135923809Y-116283390D01*
X137733333Y-110654819D02*
X137733333Y-111369104D01*
X137733333Y-111369104D02*
X137780952Y-111511961D01*
X137780952Y-111511961D02*
X137876190Y-111607200D01*
X137876190Y-111607200D02*
X138019047Y-111654819D01*
X138019047Y-111654819D02*
X138114285Y-111654819D01*
X137257142Y-111654819D02*
X137257142Y-110654819D01*
X137257142Y-110654819D02*
X136876190Y-110654819D01*
X136876190Y-110654819D02*
X136780952Y-110702438D01*
X136780952Y-110702438D02*
X136733333Y-110750057D01*
X136733333Y-110750057D02*
X136685714Y-110845295D01*
X136685714Y-110845295D02*
X136685714Y-110988152D01*
X136685714Y-110988152D02*
X136733333Y-111083390D01*
X136733333Y-111083390D02*
X136780952Y-111131009D01*
X136780952Y-111131009D02*
X136876190Y-111178628D01*
X136876190Y-111178628D02*
X137257142Y-111178628D01*
X135828571Y-110654819D02*
X136019047Y-110654819D01*
X136019047Y-110654819D02*
X136114285Y-110702438D01*
X136114285Y-110702438D02*
X136161904Y-110750057D01*
X136161904Y-110750057D02*
X136257142Y-110892914D01*
X136257142Y-110892914D02*
X136304761Y-111083390D01*
X136304761Y-111083390D02*
X136304761Y-111464342D01*
X136304761Y-111464342D02*
X136257142Y-111559580D01*
X136257142Y-111559580D02*
X136209523Y-111607200D01*
X136209523Y-111607200D02*
X136114285Y-111654819D01*
X136114285Y-111654819D02*
X135923809Y-111654819D01*
X135923809Y-111654819D02*
X135828571Y-111607200D01*
X135828571Y-111607200D02*
X135780952Y-111559580D01*
X135780952Y-111559580D02*
X135733333Y-111464342D01*
X135733333Y-111464342D02*
X135733333Y-111226247D01*
X135733333Y-111226247D02*
X135780952Y-111131009D01*
X135780952Y-111131009D02*
X135828571Y-111083390D01*
X135828571Y-111083390D02*
X135923809Y-111035771D01*
X135923809Y-111035771D02*
X136114285Y-111035771D01*
X136114285Y-111035771D02*
X136209523Y-111083390D01*
X136209523Y-111083390D02*
X136257142Y-111131009D01*
X136257142Y-111131009D02*
X136304761Y-111226247D01*
X137733333Y-113254819D02*
X137733333Y-113969104D01*
X137733333Y-113969104D02*
X137780952Y-114111961D01*
X137780952Y-114111961D02*
X137876190Y-114207200D01*
X137876190Y-114207200D02*
X138019047Y-114254819D01*
X138019047Y-114254819D02*
X138114285Y-114254819D01*
X137257142Y-114254819D02*
X137257142Y-113254819D01*
X137257142Y-113254819D02*
X136876190Y-113254819D01*
X136876190Y-113254819D02*
X136780952Y-113302438D01*
X136780952Y-113302438D02*
X136733333Y-113350057D01*
X136733333Y-113350057D02*
X136685714Y-113445295D01*
X136685714Y-113445295D02*
X136685714Y-113588152D01*
X136685714Y-113588152D02*
X136733333Y-113683390D01*
X136733333Y-113683390D02*
X136780952Y-113731009D01*
X136780952Y-113731009D02*
X136876190Y-113778628D01*
X136876190Y-113778628D02*
X137257142Y-113778628D01*
X136352380Y-113254819D02*
X135685714Y-113254819D01*
X135685714Y-113254819D02*
X136114285Y-114254819D01*
X137733333Y-118454819D02*
X137733333Y-119169104D01*
X137733333Y-119169104D02*
X137780952Y-119311961D01*
X137780952Y-119311961D02*
X137876190Y-119407200D01*
X137876190Y-119407200D02*
X138019047Y-119454819D01*
X138019047Y-119454819D02*
X138114285Y-119454819D01*
X137257142Y-119454819D02*
X137257142Y-118454819D01*
X137257142Y-118454819D02*
X136876190Y-118454819D01*
X136876190Y-118454819D02*
X136780952Y-118502438D01*
X136780952Y-118502438D02*
X136733333Y-118550057D01*
X136733333Y-118550057D02*
X136685714Y-118645295D01*
X136685714Y-118645295D02*
X136685714Y-118788152D01*
X136685714Y-118788152D02*
X136733333Y-118883390D01*
X136733333Y-118883390D02*
X136780952Y-118931009D01*
X136780952Y-118931009D02*
X136876190Y-118978628D01*
X136876190Y-118978628D02*
X137257142Y-118978628D01*
X136209523Y-119454819D02*
X136019047Y-119454819D01*
X136019047Y-119454819D02*
X135923809Y-119407200D01*
X135923809Y-119407200D02*
X135876190Y-119359580D01*
X135876190Y-119359580D02*
X135780952Y-119216723D01*
X135780952Y-119216723D02*
X135733333Y-119026247D01*
X135733333Y-119026247D02*
X135733333Y-118645295D01*
X135733333Y-118645295D02*
X135780952Y-118550057D01*
X135780952Y-118550057D02*
X135828571Y-118502438D01*
X135828571Y-118502438D02*
X135923809Y-118454819D01*
X135923809Y-118454819D02*
X136114285Y-118454819D01*
X136114285Y-118454819D02*
X136209523Y-118502438D01*
X136209523Y-118502438D02*
X136257142Y-118550057D01*
X136257142Y-118550057D02*
X136304761Y-118645295D01*
X136304761Y-118645295D02*
X136304761Y-118883390D01*
X136304761Y-118883390D02*
X136257142Y-118978628D01*
X136257142Y-118978628D02*
X136209523Y-119026247D01*
X136209523Y-119026247D02*
X136114285Y-119073866D01*
X136114285Y-119073866D02*
X135923809Y-119073866D01*
X135923809Y-119073866D02*
X135828571Y-119026247D01*
X135828571Y-119026247D02*
X135780952Y-118978628D01*
X135780952Y-118978628D02*
X135733333Y-118883390D01*
X137709523Y-121054819D02*
X137709523Y-121769104D01*
X137709523Y-121769104D02*
X137757142Y-121911961D01*
X137757142Y-121911961D02*
X137852380Y-122007200D01*
X137852380Y-122007200D02*
X137995237Y-122054819D01*
X137995237Y-122054819D02*
X138090475Y-122054819D01*
X137233332Y-122054819D02*
X137233332Y-121054819D01*
X137233332Y-121054819D02*
X136852380Y-121054819D01*
X136852380Y-121054819D02*
X136757142Y-121102438D01*
X136757142Y-121102438D02*
X136709523Y-121150057D01*
X136709523Y-121150057D02*
X136661904Y-121245295D01*
X136661904Y-121245295D02*
X136661904Y-121388152D01*
X136661904Y-121388152D02*
X136709523Y-121483390D01*
X136709523Y-121483390D02*
X136757142Y-121531009D01*
X136757142Y-121531009D02*
X136852380Y-121578628D01*
X136852380Y-121578628D02*
X137233332Y-121578628D01*
X135709523Y-122054819D02*
X136280951Y-122054819D01*
X135995237Y-122054819D02*
X135995237Y-121054819D01*
X135995237Y-121054819D02*
X136090475Y-121197676D01*
X136090475Y-121197676D02*
X136185713Y-121292914D01*
X136185713Y-121292914D02*
X136280951Y-121340533D01*
X135090475Y-121054819D02*
X134995237Y-121054819D01*
X134995237Y-121054819D02*
X134899999Y-121102438D01*
X134899999Y-121102438D02*
X134852380Y-121150057D01*
X134852380Y-121150057D02*
X134804761Y-121245295D01*
X134804761Y-121245295D02*
X134757142Y-121435771D01*
X134757142Y-121435771D02*
X134757142Y-121673866D01*
X134757142Y-121673866D02*
X134804761Y-121864342D01*
X134804761Y-121864342D02*
X134852380Y-121959580D01*
X134852380Y-121959580D02*
X134899999Y-122007200D01*
X134899999Y-122007200D02*
X134995237Y-122054819D01*
X134995237Y-122054819D02*
X135090475Y-122054819D01*
X135090475Y-122054819D02*
X135185713Y-122007200D01*
X135185713Y-122007200D02*
X135233332Y-121959580D01*
X135233332Y-121959580D02*
X135280951Y-121864342D01*
X135280951Y-121864342D02*
X135328570Y-121673866D01*
X135328570Y-121673866D02*
X135328570Y-121435771D01*
X135328570Y-121435771D02*
X135280951Y-121245295D01*
X135280951Y-121245295D02*
X135233332Y-121150057D01*
X135233332Y-121150057D02*
X135185713Y-121102438D01*
X135185713Y-121102438D02*
X135090475Y-121054819D01*
D11*
X138600000Y-115400000D02*
X138600000Y-117400000D01*
X138600000Y-117400000D02*
X141400000Y-117400000D01*
X141400000Y-115400000D02*
X138600000Y-115400000D01*
X141400000Y-117400000D02*
X141400000Y-115400000D01*
X138600000Y-110200000D02*
X138600000Y-112200000D01*
X138600000Y-112200000D02*
X141400000Y-112200000D01*
X141400000Y-110200000D02*
X138600000Y-110200000D01*
X141400000Y-112200000D02*
X141400000Y-110200000D01*
X138600000Y-112800000D02*
X138600000Y-114800000D01*
X138600000Y-114800000D02*
X141400000Y-114800000D01*
X141400000Y-112800000D02*
X138600000Y-112800000D01*
X141400000Y-114800000D02*
X141400000Y-112800000D01*
X138600000Y-118000000D02*
X138600000Y-120000000D01*
X138600000Y-120000000D02*
X141400000Y-120000000D01*
X141400000Y-118000000D02*
X138600000Y-118000000D01*
X141400000Y-120000000D02*
X141400000Y-118000000D01*
X138600000Y-120600000D02*
X138600000Y-122600000D01*
X138600000Y-122600000D02*
X141400000Y-122600000D01*
X141400000Y-120600000D02*
X138600000Y-120600000D01*
X141400000Y-122600000D02*
X141400000Y-120600000D01*
M02*
