M48
; DRILL file {KiCad 9.0.2} date 2025-05-27T17:03:53+0200
; FORMAT={-:-/ absolute / metric / decimal}
; #@! TF.CreationDate,2025-05-27T17:03:53+02:00
; #@! TF.GenerationSoftware,Kicad,Pcbnew,9.0.2
; #@! TF.FileFunction,Plated,1,2,PTH
FMAT,2
METRIC
; #@! TA.AperFunction,Plated,PTH,ViaDrill
T1C0.400
; #@! TA.AperFunction,Plated,PTH,ComponentDrill
T2C0.700
; #@! TA.AperFunction,Plated,PTH,ViaDrill
T3C0.800
; #@! TA.AperFunction,Plated,PTH,ComponentDrill
T4C0.800
; #@! TA.AperFunction,Plated,PTH,ComponentDrill
T5C0.900
; #@! TA.AperFunction,Plated,PTH,ComponentDrill
T6C1.000
; #@! TA.AperFunction,Plated,PTH,ComponentDrill
T7C1.010
; #@! TA.AperFunction,Plated,PTH,ComponentDrill
T8C1.016
; #@! TA.AperFunction,Plated,PTH,ComponentDrill
T9C1.100
; #@! TA.AperFunction,Plated,PTH,ComponentDrill
T10C1.200
; #@! TA.AperFunction,Plated,PTH,ComponentDrill
T11C1.300
; #@! TA.AperFunction,Plated,PTH,ComponentDrill
T12C3.200
%
G90
G05
T1
X124.714Y-113.786
X126.0Y-61.42
X134.62Y-132.588
X134.7Y-122.7
X135.7Y-122.7
X136.8Y-122.8
X137.7Y-123.6
X142.24Y-112.776
X142.3Y-122.8
X142.45Y-75.53
X143.025Y-120.396
X144.96Y-112.647
X144.985Y-113.743
X148.336Y-127.217
X150.787Y-50.713
X160.528Y-96.012
X161.036Y-130.048
X167.956Y-60.137
X169.672Y-127.217
X171.704Y-100.076
X172.504Y-99.06
X172.954Y-98.044
X175.514Y-57.658
X177.292Y-129.54
X177.546Y-59.436
X178.562Y-59.63
X182.0Y-55.2
X184.15Y-129.54
X196.5Y-60.5
X199.0Y-66.5
X199.0Y-67.5
X199.136Y-90.932
T2
X124.714Y-121.158
X124.714Y-126.238
X139.446Y-107.95
X142.46Y-45.0
X142.494Y-47.5
X144.526Y-107.95
X146.558Y-107.95
X147.54Y-45.0
X147.574Y-47.5
X150.368Y-59.944
X150.368Y-65.024
X150.622Y-131.064
X151.638Y-107.95
X152.146Y-98.044
X152.654Y-59.944
X152.654Y-65.024
X153.416Y-122.428
X153.416Y-124.714
X154.94Y-59.944
X154.94Y-65.024
X155.702Y-131.064
X157.226Y-59.944
X157.226Y-65.024
X157.226Y-98.044
X157.734Y-131.064
X158.496Y-122.428
X158.496Y-124.714
X159.258Y-98.044
X162.814Y-131.064
X164.338Y-98.044
X164.846Y-131.064
X166.624Y-96.266
X166.624Y-101.346
X168.91Y-96.266
X168.91Y-101.346
X169.926Y-131.064
X170.18Y-59.436
X170.18Y-64.008
X170.18Y-66.294
X171.196Y-115.316
X171.196Y-120.396
X171.958Y-131.064
X173.482Y-115.316
X173.482Y-120.396
X175.26Y-59.436
X175.26Y-64.008
X175.26Y-66.294
X175.768Y-115.316
X175.768Y-120.396
X177.038Y-131.064
X178.562Y-126.492
X183.388Y-111.252
X183.642Y-126.492
X185.166Y-96.52
X185.166Y-101.6
X187.47Y-96.52
X187.47Y-101.6
X188.468Y-111.252
X188.722Y-124.106
X188.722Y-129.186
X189.738Y-96.52
X189.738Y-101.6
X190.246Y-77.5
X190.246Y-80.518
X190.246Y-82.804
X190.246Y-85.09
X190.246Y-87.376
X195.326Y-77.5
X195.326Y-80.518
X195.326Y-82.804
X195.326Y-85.09
X195.326Y-87.376
X204.978Y-124.206
X204.978Y-129.286
T3
X150.5Y-78.03
T4
X124.5Y-72.19
X124.5Y-79.81
X124.5Y-82.19
X124.5Y-89.81
X129.286Y-67.818
X129.286Y-70.318
X129.9Y-51.7
X129.9Y-64.4
X132.44Y-51.7
X132.44Y-64.4
X132.588Y-67.818
X132.588Y-70.318
X134.98Y-51.7
X134.98Y-64.4
X137.52Y-51.7
X137.52Y-64.4
X140.06Y-51.7
X140.06Y-64.4
X142.6Y-51.7
X142.6Y-64.4
X145.14Y-51.7
X145.14Y-64.4
X147.68Y-51.7
X147.68Y-64.4
X147.868Y-122.682
X150.368Y-122.682
X150.662Y-41.656
X153.162Y-41.656
X154.686Y-45.466
X154.686Y-50.466
X159.258Y-128.27
X160.782Y-115.824
X160.782Y-118.364
X160.782Y-120.904
X160.782Y-123.444
X161.036Y-108.204
X161.036Y-110.704
X161.758Y-128.27
X164.338Y-108.204
X164.338Y-110.704
X167.64Y-108.204
X167.64Y-110.704
X168.402Y-115.824
X168.402Y-118.364
X168.402Y-120.904
X168.402Y-123.444
X168.91Y-69.088
X168.91Y-71.628
X168.91Y-74.168
X168.91Y-76.708
X168.91Y-79.248
X168.91Y-81.788
X168.91Y-84.328
X168.91Y-86.868
X170.942Y-108.244
X170.942Y-110.744
X172.72Y-124.968
X172.72Y-128.27
X174.244Y-108.204
X174.244Y-110.704
X175.22Y-124.968
X175.22Y-128.27
X176.53Y-69.088
X176.53Y-71.628
X176.53Y-74.168
X176.53Y-76.708
X176.53Y-79.248
X176.53Y-81.788
X176.53Y-84.328
X176.53Y-86.868
X177.546Y-108.204
X177.546Y-110.704
X178.562Y-115.824
X178.562Y-118.364
X178.562Y-120.904
X178.562Y-123.444
X179.11Y-91.948
X179.11Y-99.06
X179.578Y-79.248
X179.578Y-81.788
X179.578Y-84.328
X179.578Y-86.868
X179.832Y-131.064
X181.61Y-91.948
X181.61Y-99.06
X182.332Y-131.064
X184.698Y-108.458
X185.166Y-47.244
X185.166Y-49.244
X186.182Y-115.824
X186.182Y-118.364
X186.182Y-120.904
X186.182Y-123.444
X186.222Y-91.948
X187.198Y-79.248
X187.198Y-81.788
X187.198Y-84.328
X187.198Y-86.868
X187.198Y-108.458
X188.722Y-91.948
X191.262Y-108.458
X191.262Y-110.958
X192.786Y-47.752
X192.786Y-50.252
X193.0Y-115.88
X193.0Y-123.5
X194.564Y-108.458
X194.564Y-110.958
X195.54Y-115.88
X195.54Y-123.5
X197.866Y-108.458
X197.866Y-110.958
X198.08Y-115.88
X198.08Y-123.5
X198.628Y-101.854
X200.62Y-115.88
X200.62Y-123.5
X201.128Y-101.854
X201.168Y-108.498
X201.168Y-110.998
T5
X132.38Y-47.5
X134.92Y-47.5
X137.46Y-47.5
X140.0Y-47.5
X153.416Y-101.6
X155.956Y-101.6
X160.528Y-101.6
X163.068Y-101.6
T6
X124.0Y-61.42
X124.0Y-63.96
X124.0Y-66.5
X147.828Y-110.998
X150.368Y-110.998
X156.464Y-110.49
X156.464Y-115.49
X174.582Y-94.298
X174.582Y-96.838
X174.582Y-99.378
X181.3Y-73.5
X183.38Y-69.0
X183.475Y-61.0
X183.5Y-65.0
X183.84Y-73.5
X185.92Y-69.0
X186.015Y-61.0
X186.04Y-65.0
X186.38Y-73.5
X188.46Y-69.0
X188.555Y-61.0
X188.58Y-65.0
X188.92Y-73.5
X189.274Y-132.08
X191.0Y-69.0
X191.12Y-65.0
X191.46Y-73.5
X191.814Y-128.27
X191.814Y-132.08
X193.54Y-69.0
X194.0Y-73.5
X194.354Y-128.27
X194.354Y-132.08
X198.255Y-71.24
X198.255Y-73.78
X198.255Y-76.32
X198.255Y-78.86
X198.255Y-81.4
X199.274Y-132.132
X199.39Y-128.432
X201.814Y-132.132
X201.93Y-128.432
X204.354Y-132.132
T7
X192.532Y-98.552
X194.432Y-93.452
X205.74Y-118.364
X207.64Y-113.264
T8
X128.796Y-57.0
X130.5Y-79.74
X130.5Y-82.28
X130.5Y-84.82
X130.5Y-87.36
X130.5Y-89.9
X130.5Y-92.44
X130.5Y-94.98
X130.5Y-97.52
X130.5Y-100.06
X130.5Y-102.6
X130.5Y-105.14
X130.5Y-107.68
X130.5Y-110.22
X130.5Y-112.76
X130.5Y-115.3
X130.5Y-117.84
X130.5Y-120.38
X130.5Y-122.92
X130.5Y-125.46
X130.5Y-128.0
X131.336Y-57.0
X133.04Y-79.74
X133.04Y-82.28
X133.04Y-84.82
X133.04Y-87.36
X133.04Y-89.9
X133.04Y-92.44
X133.04Y-94.98
X133.04Y-97.52
X133.04Y-100.06
X133.04Y-102.6
X133.04Y-105.14
X133.04Y-107.68
X133.04Y-110.22
X133.04Y-112.76
X133.04Y-115.3
X133.04Y-117.84
X133.04Y-120.38
X133.04Y-122.92
X133.04Y-125.46
X133.04Y-128.0
X133.876Y-57.0
X136.416Y-57.0
X137.94Y-105.26
X138.956Y-57.0
X140.48Y-105.26
X141.496Y-57.0
X143.02Y-105.26
X144.036Y-57.0
X145.56Y-105.26
X146.576Y-57.0
X148.1Y-105.26
X149.116Y-57.0
X150.64Y-105.26
X151.656Y-57.0
X153.18Y-105.26
X155.72Y-57.0
X155.72Y-105.26
X158.26Y-57.0
X160.8Y-57.0
X160.8Y-105.26
X163.34Y-57.0
X163.34Y-105.26
X165.88Y-57.0
X165.88Y-105.26
X168.42Y-57.0
X168.42Y-105.26
X170.96Y-57.0
X170.96Y-105.26
X173.5Y-57.0
X173.5Y-105.26
X176.04Y-105.26
X178.58Y-57.0
X178.58Y-105.26
X181.12Y-57.0
X183.66Y-57.0
X183.66Y-105.26
X186.2Y-57.0
X186.2Y-105.26
X188.74Y-57.0
X188.74Y-105.26
X191.28Y-57.0
X191.28Y-105.26
X193.82Y-57.0
X193.82Y-105.26
X196.36Y-57.0
X196.36Y-105.26
X198.9Y-105.26
X201.44Y-105.26
X203.98Y-57.0
X203.98Y-59.54
X203.98Y-62.08
X203.98Y-64.62
X203.98Y-67.16
X203.98Y-69.7
X203.98Y-72.24
X203.98Y-74.78
X203.98Y-77.32
X203.98Y-79.86
X203.98Y-82.4
X203.98Y-84.94
X203.98Y-87.48
X203.98Y-90.02
X203.98Y-92.56
X203.98Y-95.1
X203.98Y-97.64
X203.98Y-100.18
X206.52Y-57.0
X206.52Y-59.54
X206.52Y-62.08
X206.52Y-64.62
X206.52Y-67.16
X206.52Y-69.7
X206.52Y-72.24
X206.52Y-74.78
X206.52Y-77.32
X206.52Y-79.86
X206.52Y-82.4
X206.52Y-84.94
X206.52Y-87.48
X206.52Y-90.02
X206.52Y-92.56
X206.52Y-95.1
X206.52Y-97.64
X206.52Y-100.18
T9
X179.324Y-44.196
X179.324Y-46.736
X179.324Y-49.276
X198.374Y-43.18
X198.374Y-50.8
T10
X182.372Y-43.18
X195.072Y-43.18
T11
X205.0Y-44.0
X205.0Y-49.0
T12
X123.5Y-105.5
X125.24Y-57.0
X200.52Y-57.0
X206.52Y-105.26
M30
